<svg width="376" height="33" viewBox="0 0 376 33" fill="none" xmlns="http://www.w3.org/2000/svg">
<g clip-path="url(#clip0_23208_122)">
<path d="M0 1H20V3.02112H11.1949V26H8.80515V3.02112H0V1Z" fill="white"/>
<path d="M22 1H24.2519V11.051H24.3263C25.1452 8.88419 27.6203 7.40932 30.2258 7.40932C35.4181 7.40932 37 10.0677 37 14.3831V26H34.7481V14.7291C34.7481 11.6154 33.706 9.26657 30.0583 9.26657C26.4107 9.26657 24.3263 11.925 24.2519 15.4574V26H22V1Z" fill="white"/>
<path d="M42.1865 17.6286C42.2226 21 43.8851 25.0571 48.0955 25.0571C51.2939 25.0571 53.0287 23.0762 53.7334 20.219H55.9199C54.9803 24.5048 52.613 27 48.0955 27C42.4033 27 40 22.3905 40 17C40 12.0286 42.4033 7 48.0955 7C53.7876 7 56.1548 12.3143 55.9922 17.6286H42.1865ZM53.7876 15.7048C53.6973 12.219 51.6373 8.9619 48.0955 8.9619C44.5537 8.9619 42.5298 12.2571 42.1865 15.7048H53.7876Z" fill="white"/>
<path d="M76.6912 1H82.4576L92 26H86.1778L84.2433 20.4283H74.7009L72.692 26H67L76.6912 1ZM76.1518 16.3314H82.7738L79.5558 7.15441H79.4814L76.1518 16.3314Z" fill="white"/>
<path d="M111 24.811C111 27.8447 109.883 33 101.067 33C97.2938 33 92.8855 31.2878 92.6353 27.063H97.8521C98.3333 28.9613 99.9311 29.6127 101.779 29.6127C104.705 29.6127 106.033 27.6772 105.995 25.0344V22.5963H105.918C104.763 24.5319 102.472 25.4624 100.181 25.4624C94.4448 25.4624 92 21.2376 92 16.1568C92 11.355 94.849 7 100.22 7C102.742 7 104.667 7.8189 105.918 9.97781H105.995V7.50251H111V24.8296V24.811ZM105.995 16.5104C105.995 13.514 104.917 10.8153 101.51 10.8153C98.5451 10.8153 97.2553 13.3278 97.2553 16.0823C97.2553 18.8368 98.2948 21.6285 101.51 21.6285C104.513 21.6285 105.995 19.1532 105.995 16.5104Z" fill="white"/>
<path d="M114 7.48337H118.737V10.0675H118.847C120.104 7.98532 122.272 7 124.368 7C129.67 7 131 10.0489 131 14.6223V25.9814H126.026V15.5519C126.026 12.5029 125.151 11.0157 122.837 11.0157C120.14 11.0157 118.974 12.5587 118.974 16.3141V26H114V7.48337Z" fill="white"/>
<path d="M137.951 18.2595C138.096 21.5611 139.638 23.0687 142.377 23.0687C144.372 23.0687 145.986 21.7901 146.294 20.6069H150.647C149.25 25.0916 146.294 27 142.213 27C136.518 27 133 22.8969 133 17.0191C133 11.1412 136.736 7 142.213 7C148.343 7 151.318 12.4389 150.973 18.2595H137.951ZM146.004 14.958C145.55 12.3244 144.48 10.9122 142.068 10.9122C138.931 10.9122 138.024 13.4886 137.951 14.958H146.004Z" fill="white"/>
<path d="M157.794 20.3333C157.831 22.6065 159.675 23.5234 161.666 23.5234C163.123 23.5234 164.966 22.9312 164.966 21.0974C164.966 19.5119 162.864 18.958 159.251 18.1557C156.337 17.4871 153.443 16.4365 153.443 13.0936C153.443 8.24164 157.48 7 161.408 7C165.335 7 169.115 8.39446 169.502 13.0554H164.708C164.561 11.0306 163.086 10.4766 161.279 10.4766C160.136 10.4766 158.476 10.7058 158.476 12.234C158.476 14.106 161.297 14.3543 164.174 15.0611C167.124 15.7488 170 16.8567 170 20.3906C170 25.3954 165.815 27 161.629 27C157.444 27 153.221 25.3381 153 20.3142H157.794V20.3333Z" fill="white"/>
<path d="M183 1H189V26H183V1Z" fill="white"/>
<path d="M191 7.48384H195.856V10.9265H195.931C196.869 8.60039 199.4 7 201.894 7C202.25 7 202.681 7.07444 203 7.18609V11.9128C202.531 11.8012 201.781 11.7267 201.162 11.7267C197.412 11.7267 196.119 14.4065 196.119 17.6631V26H191V7.48384Z" fill="white"/>
<path d="M227.316 26H222.214L219 13.9215H218.927L215.859 26H210.72L205 8H210.248L213.553 20.2233H213.625L216.621 8H221.451L224.52 20.1871H224.593L227.916 8H233L227.316 26Z" fill="white"/>
<path d="M240 5.09687H235V1H240V5.09687ZM235 7.90095H240V26H235V7.90095Z" fill="white"/>
<path d="M243 7.48337H247.724V10.0675H247.834C249.092 7.98532 251.281 7 253.379 7C258.668 7 260 10.0489 260 14.6223V25.9814H255.02V15.5519C255.02 12.5029 254.145 11.0157 251.828 11.0157C249.129 11.0157 247.98 12.5587 247.98 16.3141V26H243V7.48337Z" fill="white"/>
<path d="M275.453 17.9309C275.341 23.2668 279.141 24.8883 283.798 24.8883C286.48 24.8883 290.56 23.3987 290.56 19.6278C290.56 16.6865 287.654 15.5363 285.307 14.9518L279.607 13.5377C276.589 12.7835 273.832 11.3317 273.832 7.29679C273.832 4.7514 275.453 0 282.643 0C287.691 0 292.143 2.75279 292.106 8.05098H289.666C289.517 4.09148 286.294 2.11173 282.68 2.11173C279.346 2.11173 276.272 3.41271 276.272 7.25908C276.272 9.69134 278.061 10.7095 280.147 11.2186L286.369 12.7835C289.982 13.764 293 15.3666 293 19.6089C293 21.3813 292.274 27 283.22 27C277.166 27 272.733 24.2472 273.013 17.9309H275.453Z" fill="white"/>
<path d="M309.505 13.4762C308.886 10.6571 307.126 8.94286 304.09 8.94286C299.584 8.94286 297.359 12.981 297.359 17C297.359 21.019 299.584 25.0571 304.09 25.0571C306.991 25.0571 309.37 22.8286 309.66 19.6667H312C311.381 24.2 308.364 27 304.09 27C298.21 27 295 22.4286 295 17C295 11.5714 298.21 7 304.09 7C308.171 7 311.342 9.15238 311.865 13.4762H309.505Z" fill="white"/>
<path d="M315 1H317.27V11.051H317.326C318.164 8.88419 320.62 7.40932 323.244 7.40932C328.437 7.40932 330 10.0677 330 14.3831V26H327.748V14.7291C327.748 11.6154 326.706 9.26657 323.058 9.26657C319.411 9.26657 317.326 11.925 317.27 15.4574V26H315V1Z" fill="white"/>
<path d="M351 17C351 22.4286 347.834 27 342 27C336.166 27 333 22.4286 333 17C333 11.5714 336.166 7 342 7C347.834 7 351 11.5714 351 17ZM335.322 17C335.322 21.0381 337.529 25.0571 342 25.0571C346.471 25.0571 348.678 21.019 348.678 17C348.678 12.981 346.471 8.94286 342 8.94286C337.529 8.94286 335.322 12.981 335.322 17Z" fill="white"/>
<path d="M370 17C370 22.4286 366.995 27 361.491 27C355.987 27 353 22.4286 353 17C353 11.5714 355.987 7 361.491 7C366.995 7 370 11.5714 370 17ZM355.191 17C355.191 21.0381 357.291 25.0571 361.491 25.0571C365.691 25.0571 367.791 21.019 367.791 17C367.791 12.981 365.709 8.94286 361.491 8.94286C357.273 8.94286 355.191 12.981 355.191 17Z" fill="white"/>
<path d="M374 1H376V26H374V1Z" fill="white"/>
</g>
<defs>
<clipPath id="clip0_23208_122">
<rect width="376" height="33" fill="white"/>
</clipPath>
</defs>
</svg>
