<svg width="194" height="233" viewBox="0 0 194 233" fill="none" xmlns="http://www.w3.org/2000/svg">
<g clip-path="url(#clip0_18197_4142)">
<path d="M96.9951 233L96.328 232.786C96.0992 232.713 73.3538 225.326 50.3066 209.798C36.7159 200.643 25.6573 190.485 17.4327 179.605C7.08022 165.904 1.21737 151.025 0.00486948 135.375V135.205L0 0H194V131.492C193.357 147.906 187.85 163.473 177.624 177.754C169.497 189.101 158.394 199.659 144.624 209.131C121.265 225.195 98.6167 232.488 97.6623 232.79L96.9951 233ZM4.38253 135.117C5.54147 149.87 11.0975 163.931 20.8949 176.916C28.8127 187.406 39.5012 197.223 52.6683 206.105C73.0227 219.83 93.1288 227.061 97.0049 228.386C100.935 227.051 121.586 219.674 142.233 205.452C155.565 196.273 166.288 186.076 174.098 175.147C183.784 161.602 189.004 146.869 189.617 131.355V4.38501H4.38253V135.117Z" fill="white"/>
<path d="M97.0584 219.392L96.4789 219.216C95.7144 218.983 77.488 213.326 58.2146 199.64C46.8589 191.581 37.5436 182.402 30.517 172.365C21.7032 159.77 16.4977 145.787 15.0564 130.815L15.0466 130.629V62.7105H178.588L178.612 64.6351C178.612 64.8787 178.9 89.5955 178.612 131.472L178.603 131.628C177.327 146.245 172.253 159.96 163.517 172.394C156.559 182.295 147.282 191.401 135.941 199.46C116.692 213.136 98.4024 218.978 97.633 219.216L97.0584 219.397V219.392ZM18.9422 130.532C20.33 144.774 25.2871 158.08 33.6724 170.075C40.4264 179.742 49.4105 188.594 60.3766 196.395C77.2737 208.415 93.7812 214.218 97.0438 215.299C100.306 214.188 116.882 208.23 133.774 196.21C144.731 188.414 153.681 179.625 160.366 170.095C168.669 158.265 173.495 145.236 174.717 131.36C174.96 96.1925 174.795 73.1615 174.736 66.6035H18.9422V130.532Z" fill="white"/>
<path d="M15.7285 29.9642H16.1668C17.2867 29.9642 18.4554 29.8181 18.4554 28.2102V12.1806C18.4554 10.5727 17.2867 10.4266 16.1668 10.4266H15.7285V9.50085C17.5789 9.50085 20.7928 9.5983 23.3249 9.5983C25.857 9.5983 29.0709 9.50085 31.1648 9.50085C31.1161 10.8164 31.1648 12.8627 31.2135 14.1782L30.2883 14.4218C30.1422 12.4242 29.7526 10.8164 26.5388 10.8164H22.3023V18.8555H25.9544C27.8048 18.8555 28.1944 17.8324 28.3892 16.1758H29.3144C29.2657 17.3939 29.217 18.5632 29.217 19.7325C29.217 20.9019 29.217 22.0712 29.3144 23.2406L28.3892 23.4354C28.1944 21.584 28.097 20.4147 26.0031 20.4147H22.351V27.5281C22.351 29.5257 24.104 29.5257 26.1005 29.5257C29.7526 29.5257 31.4082 29.2821 32.3334 25.7741L33.2099 25.969C32.8204 27.5768 32.4308 29.2334 32.1873 30.8412C30.2396 30.8412 26.7335 30.7438 23.9579 30.7438C21.1823 30.7438 17.5789 30.8412 15.8259 30.8412V29.9155L15.7285 29.9642Z" fill="white"/>
<path d="M40.8062 27.4307C40.8062 29.9155 42.1696 29.9642 43.7278 29.9642H44.2148V30.89C42.6566 30.89 41.147 30.7925 39.5401 30.7925C37.9332 30.7925 36.2288 30.89 34.4758 30.89V29.9642H34.9628C35.888 29.9642 36.9106 29.9642 36.9106 27.4794V12.8627C36.9106 10.8164 36.3262 10.4266 34.8654 10.4266H34.4758V9.50085C35.5958 9.50085 37.2027 9.5983 38.761 9.5983C40.3192 9.5983 41.8287 9.50085 43.2409 9.50085C47.3799 9.50085 50.4477 10.8651 50.4477 15.3475C50.4477 19.83 47.9156 21.2429 44.5556 21.584C43.6304 21.6327 42.8026 21.6327 42.1209 21.6327V20.707H42.7539C45.2374 20.707 46.3574 18.5145 46.3574 15.4937C46.3574 12.4729 44.8965 10.6215 41.7313 10.6215H40.8548V27.4307H40.8062Z" fill="white"/>
<path d="M51.1782 29.9642H51.6165C52.7365 29.9642 53.9051 29.8181 53.9051 28.2102V12.1806C53.9051 10.5727 52.7365 10.4266 51.6165 10.4266H51.1782V9.50085C52.3469 9.50085 54.1973 9.5983 55.7068 9.5983C57.2164 9.5983 59.0668 9.50085 60.5276 9.50085V10.4266H60.0894C58.9694 10.4266 57.8007 10.5727 57.8007 12.1806V28.2102C57.8007 29.8181 58.9694 29.9642 60.0894 29.9642H60.5276V30.89C59.0668 30.89 57.2164 30.7925 55.7068 30.7925C54.1973 30.7925 52.3956 30.89 51.2269 30.89V29.9642H51.1782Z" fill="white"/>
<path d="M73.091 14.032C72.8962 12.0344 71.5814 10.1343 69.4875 10.1343C67.3937 10.1343 65.738 11.5959 65.738 13.9833C65.738 19.0505 74.8927 17.5401 74.8927 24.8971C74.8927 32.2542 71.3866 31.3285 67.4911 31.3285C63.5955 31.3285 64.1311 30.6951 62.6216 29.9643C62.4755 28.4051 62.232 26.8948 62.0859 25.3356L62.9624 25.1407C63.352 27.723 64.8128 30.013 67.6858 30.013C70.5588 30.013 71.4353 28.6975 71.4353 26.505C71.4353 21.0968 62.4268 22.7534 62.4268 15.3963C62.4268 8.0392 65.2511 9.06237 69.1954 9.06237C73.1397 9.06237 72.6527 9.40343 73.6266 9.50087C73.6266 10.9625 73.724 12.4242 73.9188 13.8859L73.0423 14.032H73.091Z" fill="white"/>
<path d="M96.1236 15.8348C95.2471 12.8627 93.8836 10.4266 89.2576 10.4266C84.6316 10.4266 81.6125 14.3731 81.6125 19.7325C81.6125 25.092 84.1934 30.013 89.988 30.013C95.7827 30.013 95.4419 27.9666 96.221 24.8971L97.0975 24.9946C96.7079 26.6511 96.4644 28.3077 96.3184 29.9642C94.5653 30.7438 92.1306 31.3285 89.3063 31.3285C82.4403 31.3285 77.3274 27.5768 77.3274 19.8787C77.3274 12.1806 82.8786 9.06235 89.1602 9.06235C95.4419 9.06235 93.8836 10.183 96.7566 10.5727C96.7566 12.278 96.7566 13.9833 97.0001 15.6886L96.0749 15.786L96.1236 15.8348Z" fill="white"/>
<path d="M110.634 9.06235C117.16 9.06235 122.37 13.1063 122.37 19.6351C122.37 26.1639 117.306 31.3772 110.829 31.3772C104.353 31.3772 99.386 26.9922 99.386 20.4147C99.386 13.8371 104.304 9.11107 110.683 9.11107L110.634 9.06235ZM111.121 30.013C117.062 30.013 118.085 24.7997 118.085 20.3172C118.085 15.8348 115.65 10.4266 110.586 10.4266C105.522 10.4266 103.622 15.2014 103.622 19.294C103.622 23.3867 106.106 30.013 111.073 30.013H111.121Z" fill="white"/>
<path d="M130.6 27.4307C130.6 29.9155 131.963 29.9642 133.521 29.9642H134.008V30.89C132.45 30.89 130.94 30.7925 129.382 30.7925C127.824 30.7925 126.022 30.89 124.318 30.89V29.9642H124.805C125.73 29.9642 126.753 29.9642 126.753 27.4794V12.8627C126.753 10.8164 126.168 10.4266 124.707 10.4266H124.318V9.50085C125.438 9.50085 127.045 9.5983 128.603 9.5983C130.161 9.5983 131.671 9.50085 133.083 9.50085C137.222 9.50085 140.29 10.8651 140.29 15.3475C140.29 19.83 137.758 21.2429 134.398 21.584C133.424 21.6327 132.645 21.6327 131.963 21.6327V20.707H132.596C135.079 20.707 136.199 18.5145 136.199 15.4937C136.199 12.4729 134.739 10.6215 131.573 10.6215H130.697V27.4307H130.6Z" fill="white"/>
<path d="M144.234 26.505C143.942 27.5281 143.552 28.3564 143.552 28.8923C143.552 29.8181 144.818 29.9642 145.841 29.9642H146.182V30.89C144.964 30.8412 143.698 30.7925 142.481 30.7925C141.264 30.7925 140.29 30.8412 139.17 30.89V29.9642H139.364C140.582 29.9642 141.556 29.2821 142.043 27.9666L146.912 13.9346C147.302 12.814 147.886 11.2549 148.032 10.1342C149.006 9.79319 150.223 9.1598 150.808 8.81874C150.905 8.81874 150.954 8.77002 151.051 8.77002C151.149 8.77002 151.197 8.77002 151.246 8.86746C151.343 9.11108 151.441 9.40341 151.538 9.64702L157.187 25.628C157.576 26.6998 157.917 27.8205 158.307 28.7462C158.696 29.6232 159.329 29.9642 160.303 29.9642H160.498V30.89C159.135 30.8412 157.771 30.7925 156.262 30.7925C154.752 30.7925 153.242 30.8412 151.684 30.89V29.9642H152.025C152.707 29.9642 153.924 29.8668 153.924 29.0872C153.924 28.3077 153.632 27.8692 153.291 26.8947L152.074 23.338H145.11L144.137 26.505H144.234ZM148.714 12.9601H148.665L145.841 21.6327H151.587L148.763 12.9601H148.714Z" fill="white"/>
<path d="M168.192 27.8692C168.192 29.0872 169.068 29.477 170.042 29.5745C171.308 29.6719 172.672 29.6719 174.084 29.5257C175.35 29.3796 176.47 28.6487 177.006 27.8692C177.493 27.1871 177.785 26.3588 177.979 25.6767H178.856C178.515 27.4307 178.077 29.136 177.736 30.89C175.058 30.89 172.331 30.7925 169.653 30.7925C166.974 30.7925 164.248 30.89 161.569 30.89V29.9642H162.008C163.128 29.9642 164.296 29.8181 164.296 27.9179V12.1806C164.296 10.5727 163.079 10.4266 162.008 10.4266H161.569V9.50085C163.176 9.50085 164.783 9.5983 166.39 9.5983C167.997 9.5983 169.458 9.50085 171.016 9.50085V10.4266H170.237C169.068 10.4266 168.143 10.4266 168.143 12.0831V27.8692H168.192Z" fill="white"/>
<path d="M22.4969 53.692C22.2047 54.7152 21.8151 55.5435 21.8151 56.0794C21.8151 57.0051 23.0812 57.1513 24.1038 57.1513H24.4447V58.077C23.2273 58.0283 21.9612 57.9796 20.7439 57.9796C19.5265 57.9796 18.5526 58.0283 17.4326 58.077V57.1513H17.6274C18.8448 57.1513 19.8187 56.4692 20.3056 55.1537L25.1751 41.1217C25.5646 40.001 26.149 38.4419 26.2951 37.3213C27.269 36.9803 28.4863 36.3956 29.0707 36.0058C29.1681 36.0058 29.2168 35.9571 29.3141 35.9571C29.4115 35.9571 29.4602 35.9571 29.5089 36.0545C29.6063 36.2981 29.7037 36.5905 29.8011 36.8341L35.4497 52.815C35.8392 53.8869 36.1801 55.0075 36.5697 55.9333C36.9592 56.8103 37.5923 57.1513 38.6148 57.1513H38.8096V58.077C37.4462 58.0283 36.034 57.9796 34.5732 57.9796C33.1123 57.9796 31.5541 58.0283 29.9959 58.077V57.1513H30.3367C31.0185 57.1513 32.2358 57.0539 32.2358 56.2743C32.2358 55.4948 31.9437 55.0562 31.6028 54.0818L30.3854 50.5251H23.4221L22.4482 53.692H22.4969ZM26.9281 40.0985H26.8794L24.0551 48.7711H29.8011L26.9768 40.0985H26.9281Z" fill="white"/>
<path d="M58.1902 42.9731C57.3137 40.0011 55.9016 37.5649 51.3243 37.5649C46.747 37.5649 43.6792 41.5114 43.6792 46.8709C43.6792 52.2304 46.26 57.1513 52.0547 57.1513C57.8494 57.1513 57.5085 55.105 58.2876 52.0355L59.1641 52.1329C58.7746 53.7895 58.5311 55.446 58.385 57.1026C56.632 57.8822 54.1973 58.4668 51.373 58.4668C44.507 58.4668 39.394 54.7152 39.394 47.0171C39.394 39.3189 44.9452 36.2007 51.2269 36.2007C57.5085 36.2007 55.9503 37.3213 58.8233 37.7111C58.8233 39.3677 58.8233 41.1217 59.0667 42.827L58.1415 42.9244L58.1902 42.9731Z" fill="white"/>
<path d="M64.618 53.692C64.3258 54.7152 63.9362 55.5435 63.9362 56.0794C63.9362 57.0051 65.2023 57.1513 66.2249 57.1513H66.5658V58.077C65.3484 58.0283 64.0823 57.9796 62.865 57.9796C61.6476 57.9796 60.6737 58.0283 59.5537 58.077V57.1513H59.7485C60.9172 57.1513 61.9398 56.4692 62.4267 55.1537L67.3449 41.1217C67.7344 40.001 68.2701 38.4419 68.4649 37.3213C69.4388 36.9803 70.6561 36.3956 71.2405 36.0058C71.3378 36.0058 71.3865 35.9571 71.4839 35.9571C71.5813 35.9571 71.63 35.9571 71.6787 36.0545C71.7761 36.2981 71.8735 36.5905 71.9709 36.8341L77.6195 52.815C78.009 53.8869 78.3499 55.0075 78.7395 55.9333C79.129 56.8103 79.762 57.1513 80.7359 57.1513H80.9307V58.077C79.5673 58.0283 78.2038 57.9796 76.6943 57.9796C75.1847 57.9796 73.6752 58.0283 72.117 58.077V57.1513H72.4578C73.1396 57.1513 74.3569 57.0539 74.3569 56.2743C74.3569 55.4948 74.0647 55.0562 73.7239 54.0818L72.5552 50.5251H65.5919L64.618 53.692ZM69.0979 40.0985H69.0492L66.2249 48.7711H71.9709L69.1466 40.0985H69.0979Z" fill="white"/>
<path d="M82.0994 57.1513H82.5376C83.6576 57.1513 84.7776 57.0051 84.7776 55.3973V39.3677C84.7776 37.7598 83.6089 37.6136 82.5376 37.6136H82.0994V36.6879C83.0246 36.6879 85.021 36.7854 87.0175 36.7854C89.014 36.7854 90.621 36.6879 91.9357 36.6879C99.4347 36.6879 104.061 40.9268 104.061 47.3094C104.061 53.692 98.8991 58.4181 92.7148 58.077C91.3514 58.0283 89.2088 57.9796 87.1636 57.9796C85.1184 57.9796 82.9272 58.077 82.0994 58.077V57.1513ZM88.6732 54.5203C88.6732 56.6641 89.6471 56.9564 91.8383 56.9564C97.0487 56.9564 99.7269 52.6201 99.7269 47.8941C99.7269 39.8062 95.6365 37.8085 90.7183 37.8085C85.8002 37.8085 89.3062 37.906 88.6245 37.9547V54.569L88.6732 54.5203Z" fill="white"/>
<path d="M106.106 57.1513H106.544C107.664 57.1513 108.784 57.0051 108.784 55.3973V39.3677C108.784 37.7598 107.615 37.6136 106.544 37.6136H106.106V36.6879C107.956 36.6879 111.17 36.7854 113.702 36.7854C116.234 36.7854 119.448 36.6879 121.542 36.6879C121.494 38.0034 121.542 40.001 121.591 41.3653L120.666 41.6089C120.52 39.6113 120.13 38.0522 116.916 38.0522H112.68V46.0913H116.332C118.182 46.0913 118.572 45.0682 118.767 43.4116H119.692C119.643 44.5809 119.594 45.799 119.594 46.9683C119.594 48.1377 119.594 49.307 119.692 50.4763L118.767 50.6712C118.572 48.8198 118.474 47.6505 116.381 47.6505H112.728V54.7639C112.728 56.7615 114.481 56.7615 116.478 56.7615C120.13 56.7615 121.786 56.5179 122.711 53.0099L123.587 53.2048C123.198 54.8126 122.808 56.4692 122.565 58.077C120.617 58.077 117.111 57.9796 114.335 57.9796C111.56 57.9796 107.956 58.077 106.203 58.077V57.1513H106.106Z" fill="white"/>
<path d="M139.997 52.7176L147.253 36.7366C148.178 36.7366 149.249 36.8341 150.369 36.8341C151.489 36.8341 152.561 36.7366 153.632 36.7366V37.6624H153.34C152.415 37.6624 150.564 37.7111 150.515 39.0753C150.515 39.8549 150.613 40.7806 150.662 41.4627L151.83 55.4947C151.928 57.0051 152.707 57.1513 154.557 57.2V58.1257C153.096 58.077 151.635 58.0283 150.175 58.0283C148.714 58.0283 146.815 58.077 145.11 58.1257V57.2C146.717 57.1026 147.74 57.1026 147.74 55.7871V54.2767L146.863 41.3653H146.815L139.024 58.613H138.293L130.891 41.7063H130.843L129.82 55.1537C129.82 56.1281 130.064 56.6154 130.453 56.9077C130.891 57.2 131.573 57.2 132.401 57.2487H132.791V58.1745C131.427 58.1257 130.015 58.077 128.652 58.077C127.288 58.077 126.217 58.1257 125.048 58.1745V57.2487H125.486C127.921 57.1513 127.97 56.1281 128.262 53.9356L129.187 45.4092C129.431 43.2167 129.577 41.2678 129.577 40.001C129.577 38.7342 128.262 37.7111 126.899 37.7111H126.509V36.7854C127.775 36.7854 128.992 36.8828 130.258 36.8828C131.525 36.8828 132.109 36.7854 132.985 36.7854L140.143 52.7663L139.997 52.7176Z" fill="white"/>
<path d="M164.929 48.089L158.794 39.7087C157.868 38.4419 157.284 37.6136 155.872 37.6136H155.58V36.6879C157.235 36.6879 158.745 36.7854 160.401 36.7854C162.056 36.7854 163.468 36.6879 164.929 36.6879V37.6136H164.54C163.712 37.6136 162.933 37.8085 162.933 38.2958C162.933 38.783 163.322 39.0266 163.468 39.3189L168.094 45.799L171.893 40.3421C172.428 39.4651 172.866 38.9292 172.866 38.3445C172.866 37.7598 171.552 37.6136 171.113 37.6136H170.578V36.6879C171.746 36.6879 172.915 36.7854 174.084 36.7854C175.253 36.7854 176.032 36.6879 177.006 36.6879V37.6136C175.983 37.6136 175.106 38.3445 174.619 39.0266L168.922 47.0658V54.3741C168.922 56.9564 169.847 57.1513 171.454 57.1513H172.039V58.077C170.237 58.077 168.387 57.9796 167.072 57.9796C165.757 57.9796 163.712 58.077 161.91 58.077V57.1513H162.494C164.296 57.1513 165.027 56.6641 165.027 54.6177V48.089H164.929Z" fill="white"/>
<path d="M175.545 124.68H18.3191V128.578H175.545V124.68Z" fill="white"/>
<path d="M175.545 133.743H18.3191V137.641H175.545V133.743Z" fill="white"/>
<path d="M53.2721 174.475H47.38C47.38 174.523 47.38 146.07 47.38 146.07C45.3835 146.995 42.9975 148.165 40.8062 149.188L40.0271 147.775C41.9262 146.8 44.1662 145.485 46.3574 144.121C48.5974 142.659 50.6426 141.295 51.9086 140.418H53.2721V174.523V174.475Z" fill="white"/>
<path d="M77.6195 146.557H62.5729L61.1607 149.529H59.8459L60.9659 141.1H82.7812L83.122 141.685L65.3972 175.547L63.0598 174.426L77.5708 146.508L77.6195 146.557Z" fill="white"/>
<path d="M120.227 158.445L119.546 158.007C116.429 156.009 114.335 153.524 114.335 149.237C114.335 142.172 120.422 139.931 124.561 139.931C128.7 139.931 133.57 142.562 133.57 147.726C133.57 152.891 130.259 154.401 126.996 155.912C130.843 157.568 134.154 160.54 134.154 165.12C134.154 169.7 129.139 174.767 123.685 174.767C118.231 174.767 113.605 172.234 113.605 166.874C113.605 161.515 116.332 160.053 120.276 158.445H120.227ZM123.88 173.013C127.045 173.013 129.041 170.674 129.041 167.654C129.041 162.928 124.853 161.174 121.396 159.078C118.864 160.589 117.549 163.463 117.549 166.436C117.549 169.408 120.033 173.013 123.88 173.013ZM125.827 155.181C128.165 153.573 129.577 150.844 129.577 148.019C129.577 145.193 127.483 141.636 123.977 141.636C120.471 141.636 118.961 144.267 118.961 146.947C118.961 151.332 122.37 153.427 125.827 155.181Z" fill="white"/>
<path d="M141.945 140.661H155.385L153.73 145.631H142.14L140.582 150.26C146.961 152.014 153.535 155.57 153.535 163.122C153.535 170.674 147.204 174.718 140.436 174.718C133.667 174.718 134.641 173.89 134.641 171.21C134.641 168.531 135.079 169.408 136.248 169.408C138.293 169.408 137.709 172.964 142.432 172.964C147.156 172.964 148.909 169.749 148.909 165.851C148.909 159.712 142.578 156.204 137.271 155.181L141.945 140.613V140.661Z" fill="white"/>
<path d="M135.294 123.063L132.62 121.27C116.429 110.424 98.0275 119.151 97.8425 119.243L97.0829 119.613L96.3281 119.233C96.1528 119.146 78.3987 110.429 61.4967 121.289L58.8721 122.975V119.852C58.8721 116.744 58.8818 112.943 58.8915 108.753C58.9159 99.0769 58.9402 87.0376 58.8721 76.9423V75.9045L59.7875 75.4222C78.1795 65.7752 93.2701 73.4295 97.1413 75.7633C101.188 73.522 117.184 65.9603 134.393 75.4368L135.274 75.924V76.9326C135.274 81.5612 135.264 86.2337 135.255 90.9451C135.235 100.383 135.211 110.137 135.274 119.847L135.294 123.068V123.063ZM62.2856 77.9752C62.344 87.861 62.3197 99.4179 62.2953 108.763C62.2904 111.691 62.2807 114.429 62.2807 116.87C78.1114 108.339 93.5135 114.23 97.1072 115.833C100.759 114.254 116.536 108.354 131.846 116.807C131.802 108.095 131.822 99.3887 131.846 90.9305C131.856 86.5699 131.866 82.2385 131.866 77.9509C114.491 69.0201 98.1736 79.091 98.0081 79.1982L97.0488 79.8072L96.1187 79.1543C95.4954 78.7207 80.8918 68.7813 62.2856 77.9704V77.9752Z" fill="white"/>
<path d="M98.3149 77.7609H95.8801V117.713H98.3149V77.7609Z" fill="white"/>
<path d="M96.9513 116.139L96.5617 115.896C96.4108 115.798 81.1011 106.444 65.4409 113.216L64.4329 113.655L64.4232 112.553C64.3258 102.531 64.4232 75.1104 64.4232 74.8326H65.884C65.884 75.1055 65.7964 100.694 65.8743 111.457C80.473 105.742 94.4678 113.021 96.9513 114.424C99.4688 112.992 113.843 105.508 128.647 111.754C128.549 94.4044 128.364 75.0324 128.359 74.8375L129.82 74.8229C129.82 75.0275 130.015 95.2473 130.112 112.88V114.035L129.075 113.547C113.23 106.161 97.4967 115.794 97.3408 115.891L96.9562 116.135L96.9513 116.139Z" fill="white"/>
<path d="M94.0101 84.582C93.8932 84.5138 82.0166 77.8778 67.8074 82.2579L67.3789 80.8596C82.2162 76.2894 94.2341 83.0229 94.7405 83.3103L94.015 84.5771L94.0101 84.582Z" fill="white"/>
<path d="M94.0101 87.9926C93.8932 87.9244 82.0166 81.2884 67.8074 85.6685L67.3789 84.2702C82.2162 79.7 94.2341 86.4335 94.7405 86.7209L94.015 87.9877L94.0101 87.9926Z" fill="white"/>
<path d="M94.0101 91.7442C93.8932 91.6759 82.0214 85.04 67.8074 89.4201L67.3789 88.0218C82.2162 83.4516 94.2341 90.185 94.7405 90.4725L94.015 91.7393L94.0101 91.7442Z" fill="white"/>
<path d="M94.0101 95.1547C93.8932 95.0865 82.0214 88.4505 67.8074 92.8307L67.3789 91.4324C82.2162 86.8622 94.2341 93.5956 94.7405 93.8831L94.015 95.1499L94.0101 95.1547Z" fill="white"/>
<path d="M94.0101 98.5653C93.8932 98.4971 82.0214 91.8611 67.8074 96.2412L67.3789 94.8429C82.2162 90.2728 94.2341 97.0062 94.7405 97.2936L94.015 98.5604L94.0101 98.5653Z" fill="white"/>
<path d="M94.0101 102.273C93.9176 102.219 93.7958 102.146 93.6497 102.059C84.5584 96.5336 74.576 97.8637 67.8074 99.949L67.3789 98.5507C74.4348 96.3728 84.8555 94.9988 94.4094 100.807C94.5457 100.889 94.6529 100.953 94.7356 101.001L94.015 102.273H94.0101Z" fill="white"/>
<path d="M94.0101 105.338C93.8932 105.27 82.0214 98.6335 67.8074 103.014L67.3789 101.615C82.2162 97.0452 94.2341 103.779 94.7405 104.066L94.015 105.333L94.0101 105.338Z" fill="white"/>
<path d="M94.0101 109.041C93.8932 108.972 82.0214 102.336 67.8074 106.717L67.3789 105.318C82.2162 100.748 94.2341 107.481 94.7405 107.769L94.015 109.036L94.0101 109.041Z" fill="white"/>
<path d="M100.331 84.582L99.6052 83.3152C100.112 83.0277 112.125 76.2894 126.967 80.8645L126.538 82.2628C112.324 77.8827 100.453 84.5186 100.336 84.5869L100.331 84.582Z" fill="white"/>
<path d="M100.331 87.9926L99.6052 86.7258C100.112 86.4383 112.125 79.7049 126.967 84.275L126.538 85.6734C112.324 81.2932 100.453 87.9292 100.336 87.9974L100.331 87.9926Z" fill="white"/>
<path d="M100.331 91.7442L99.6052 90.4774C100.112 90.1899 112.125 83.4516 126.967 88.0266L126.538 89.425C112.324 85.0448 100.453 91.6808 100.336 91.749L100.331 91.7442Z" fill="white"/>
<path d="M100.331 95.1547L99.6052 93.8879C100.112 93.6005 112.125 86.8671 126.967 91.4372L126.538 92.8355C112.324 88.4554 100.453 95.0914 100.336 95.1596L100.331 95.1547Z" fill="white"/>
<path d="M100.331 98.5653L99.6052 97.2985C100.112 97.0111 112.125 90.2776 126.967 94.8478L126.538 96.2461C112.324 91.866 100.453 98.502 100.336 98.5702L100.331 98.5653Z" fill="white"/>
<path d="M100.331 101.83L99.6052 100.563C100.112 100.275 112.125 93.542 126.967 98.1122L126.538 99.5105C112.324 95.1304 100.453 101.766 100.336 101.835L100.331 101.83Z" fill="white"/>
<path d="M100.331 105.338L99.6052 104.071C100.112 103.783 112.125 97.05 126.967 101.62L126.538 103.019C112.324 98.6384 100.453 105.274 100.336 105.343L100.331 105.338Z" fill="white"/>
<path d="M100.331 109.041L99.6052 107.774C100.112 107.486 112.125 100.748 126.967 105.323L126.538 106.721C112.324 102.341 100.453 108.977 100.336 109.045L100.331 109.041Z" fill="white"/>
<path d="M99.4834 154.255V151.38H103.233V146.703H99.5808V143.439H94.76L94.6626 146.703L91.1079 146.606L91.0105 151.283H94.6626V154.304C87.9427 162.099 71.2404 177.837 86.1897 193.233C86.0924 195.523 86.1897 197.861 86.1897 199.567C90.8157 202.588 106.69 201.223 108.248 199.567V193.135C123.246 178.178 105.327 161.027 99.5321 154.206L99.4834 154.255ZM89.0627 183.537L87.6019 188.361L86.1897 183.488L81.369 182.027L86.1897 180.565L87.6506 175.595L89.1601 180.614L93.9322 181.978L89.1114 183.537H89.0627ZM95.3931 166.387H98.3634V170.187H95.3931V166.387ZM98.3634 192.941H95.3931V189.14H98.3634V192.941ZM98.3634 185.437H95.3931V181.637H98.3634V185.437ZM98.3634 177.788H95.3931V173.988H98.3634V177.788ZM98.3634 162.733H95.3931V158.932H98.3634V162.733ZM107.664 183.537L106.203 188.361L104.791 183.488L99.9704 182.027L104.791 180.565L106.252 175.595L107.762 180.614L112.534 181.978L107.713 183.537H107.664Z" fill="white"/>
</g>
<defs>
<clipPath id="clip0_18197_4142">
<rect width="194" height="233" fill="white"/>
</clipPath>
</defs>
</svg>
