<svg width="218" height="76" viewBox="0 0 218 76" fill="none" xmlns="http://www.w3.org/2000/svg">
<g id="FCS Words on One Line 1">
<path id="Vector" d="M207.342 39.9905C207.1 39.9905 206.949 39.8699 206.888 39.7191C206.828 39.5683 206.797 39.0556 206.797 38.1508V28.7714C206.797 26.8714 206.828 25.3032 206.918 24.6699H206.797C205.859 25.0016 204.375 25.4841 203.255 25.7254V25.846L203.921 26.6C204.103 26.781 204.163 26.9921 204.163 27.4143V38.1508C204.163 39.0556 204.133 39.5683 204.042 39.7191C203.981 39.8699 203.8 39.9603 203.527 40.0207H203.315V40.3524C203.86 40.3524 204.708 40.3222 205.435 40.3222C206.161 40.3222 207.039 40.3222 207.554 40.3524V40.0508H207.251L207.342 39.9905ZM199.379 35.6476C199.379 38.3921 198.501 40.081 197.048 40.081C195.594 40.081 195.806 39.6286 195.352 38.754C194.959 37.8794 194.747 36.7334 194.747 35.3762C194.747 32.6318 195.625 30.9429 197.048 30.9429C198.471 30.9429 199.379 32.8429 199.379 35.6476ZM200.742 39.0857C201.741 38.1207 202.286 36.8238 202.286 35.4667C202.286 34.1095 201.741 32.8429 200.711 31.908C199.712 30.973 198.38 30.4603 197.048 30.4603C195.716 30.4603 194.353 31.0032 193.354 31.9381C192.355 32.9032 191.81 34.2 191.81 35.5572C191.81 36.9143 192.355 38.181 193.384 39.1159C194.383 40.0207 195.716 40.5334 197.048 40.5334C198.38 40.5334 199.743 39.9905 200.742 39.0556M187.783 35.6476C187.783 38.3921 186.905 40.081 185.451 40.081C183.998 40.081 184.21 39.6286 183.756 38.754C183.362 37.8794 183.15 36.7334 183.15 35.3762C183.15 32.6318 184.028 30.9429 185.451 30.9429C186.874 30.9429 187.783 32.8429 187.783 35.6476ZM189.145 39.0857C190.144 38.1207 190.689 36.8238 190.689 35.4667C190.689 34.1095 190.144 32.8429 189.115 31.908C188.116 30.973 186.784 30.4603 185.451 30.4603C184.119 30.4603 182.757 31.0032 181.758 31.9381C180.758 32.9032 180.213 34.2 180.213 35.5572C180.213 36.9143 180.758 38.181 181.788 39.1159C182.787 40.0207 184.119 40.5334 185.451 40.5334C186.784 40.5334 188.146 39.9905 189.145 39.0556M179.063 39.9905C178.821 39.9905 178.669 39.8699 178.609 39.7191C178.548 39.5683 178.518 39.0556 178.518 38.1508V33.0841C178.518 31.5762 177.549 30.4603 176.186 30.4603C174.824 30.4603 174.158 31.0334 172.856 32.0286V28.7714C172.856 26.8714 172.886 25.3032 172.977 24.6699H172.856C171.917 25.0016 170.434 25.4841 169.313 25.7254V25.846L169.979 26.6C170.161 26.781 170.222 26.9921 170.222 27.4143V38.1508C170.222 39.0556 170.191 39.5683 170.101 39.7191C170.04 39.8699 169.858 39.9603 169.586 40.0207H169.374V40.3524C169.919 40.3524 170.767 40.3222 171.493 40.3222C172.22 40.3222 173.098 40.3222 173.613 40.3524V40.0508H173.31C173.068 39.9905 172.916 39.8699 172.856 39.7191C172.795 39.5683 172.765 39.0556 172.765 38.1508V32.2699C173.128 32.0889 173.583 32.0286 173.946 32.0286C175.157 32.0286 175.763 32.9937 175.763 34.9841V38.1508C175.763 39.0556 175.763 39.5683 175.672 39.7191C175.611 39.8699 175.429 39.9603 175.157 40.0207H174.945V40.3524C175.49 40.3524 176.338 40.3222 177.064 40.3222C177.791 40.3222 178.609 40.3222 179.184 40.3524V40.0508H178.911L179.063 39.9905ZM166.225 32.0889C166.588 32.9937 166.891 33.2048 167.406 33.2048C167.921 33.2048 168.435 32.7524 168.435 32.2095C168.435 31.6667 168.163 31.2746 167.588 30.973C167.043 30.6413 166.346 30.4603 165.559 30.4603C164.136 30.4603 162.773 31.0635 161.744 32.0588C160.714 33.0841 160.169 34.4111 160.169 35.8889C160.169 37.3667 160.593 38.3921 161.471 39.2667C162.349 40.1413 163.439 40.5635 164.741 40.5635C166.043 40.5635 166.376 40.3222 167.103 39.8095C167.86 39.2667 168.344 38.6334 168.678 37.7889L168.556 37.7286C167.951 38.4826 167.194 38.8143 166.286 38.8143C164.106 38.8143 162.743 37.1857 162.743 34.5619C162.743 31.9381 162.985 32.7826 163.409 32.1191C163.863 31.4556 164.439 31.1238 165.135 31.1238C165.831 31.1238 165.801 31.3048 166.164 32.1492M158.958 36.1603C158.958 35.0445 158.565 34.1397 157.747 33.3857C157.233 32.9032 156.657 32.5111 155.053 31.7572C153.872 31.1841 153.508 30.9429 153.115 30.6714C152.449 30.1286 152.085 29.5556 152.085 28.8619C152.085 27.4746 153.054 26.5397 154.417 26.5397C155.779 26.5397 157.596 27.7461 158.262 30.0381L158.444 29.9778L158.141 27.0826C157.142 26.3286 155.9 25.9064 154.477 25.9064C153.054 25.9064 151.964 26.2984 150.995 27.1127C150.026 27.8968 149.572 28.9222 149.572 30.1286C149.572 31.3349 149.966 32.0889 150.723 32.8429C151.238 33.3254 151.783 33.6572 153.327 34.381C154.508 34.9238 154.931 35.1651 155.295 35.4365C155.961 35.9794 156.294 36.5524 156.294 37.3064C156.294 38.8143 155.174 39.8095 153.569 39.8095C151.964 39.8095 149.784 38.3318 149.088 35.708L148.906 35.8286L149.148 39.0857C150.178 39.9603 151.934 40.5635 153.569 40.5635C155.204 40.5635 156.385 40.1714 157.414 39.3572C158.444 38.5429 158.958 37.4873 158.958 36.1905" fill="white"/>
<path id="Vector_2" d="M142.881 40.081C142.639 40.081 142.487 39.9603 142.427 39.8095C142.366 39.6587 142.336 39.146 142.336 38.2413V28.8619C142.336 26.9619 142.366 25.3937 142.457 24.7603H142.336C141.397 25.0921 139.913 25.5746 138.793 25.8159V25.9365L139.459 26.6905C139.641 26.8714 139.702 27.0826 139.702 27.5048V38.2413C139.702 39.146 139.671 39.6587 139.58 39.8095C139.52 39.9603 139.338 40.0508 139.066 40.1111H138.854V40.4429C139.399 40.4429 140.247 40.4127 140.973 40.4127C141.7 40.4127 142.578 40.4127 143.093 40.4429V40.1413H142.79L142.881 40.081ZM134.282 38.8746C134.009 38.9952 133.797 39.0556 133.525 39.0556C132.768 39.0556 132.284 38.5127 132.284 37.6683C132.284 36.8238 132.526 36.7032 133.131 36.3413L134.282 35.6175V38.8746ZM131.92 40.5333C132.677 40.5333 133.252 40.2619 134.282 39.0857C134.615 40.0206 135.402 40.5635 136.432 40.5635C137.461 40.5635 138.309 39.7492 138.46 38.754H138.4C138.218 38.8746 137.945 38.9651 137.673 38.9651C137.098 38.9651 136.825 38.6333 136.825 37.9397C136.825 37.246 136.825 37.0349 136.855 35.4968C136.916 33.7778 136.916 33.1445 136.916 32.5413C136.916 31.3048 135.614 30.5206 134.07 30.5206C132.526 30.5206 132.253 30.9127 131.375 31.6667C130.467 32.4508 129.831 33.446 129.831 34.1397C129.831 34.8333 129.861 34.3206 129.982 34.3206C130.104 34.3206 130.437 34.2905 130.83 34.2C131.224 34.1095 131.496 34.0492 131.648 33.9889C131.527 33.627 131.466 33.1445 131.466 32.6921C131.466 32.2397 131.799 31.8778 132.435 31.8778C133.555 31.8778 134.282 32.5413 134.282 33.3254V35.2857L131.799 36.3413C130.891 36.7333 130.315 37.0349 130.043 37.3064C129.77 37.5778 129.649 37.9095 129.649 38.3318C129.649 39.6286 130.558 40.5333 131.829 40.5333M126.167 40.0206C125.925 40.0206 125.774 39.9 125.713 39.7492C125.653 39.5683 125.622 39.0556 125.622 38.2111V33.1445C126.016 32.7524 126.319 32.5714 126.652 32.5714C126.985 32.5714 127.045 32.6318 127.409 32.9032C127.802 33.2349 128.045 33.2953 128.317 33.2953C128.983 33.2953 129.589 32.7222 129.589 31.9683C129.589 31.2143 129.074 30.5508 128.257 30.5508C127.439 30.5508 126.743 31.0937 125.653 32.873V32.6619C125.653 31.9984 125.653 30.973 125.744 30.5206H125.622C124.744 30.9127 123.321 31.4857 122.292 31.8476V31.9683L122.807 32.7222C122.988 32.9635 123.049 33.1445 123.049 33.5365V38.2413C123.049 39.146 123.019 39.6587 122.928 39.8095C122.867 39.9603 122.685 40.0508 122.413 40.1111H122.201V40.4429C122.807 40.4429 123.775 40.4127 124.563 40.4127C125.35 40.4127 126.258 40.4127 126.985 40.4429V40.1111L126.167 40.0508V40.0206ZM117.962 40.6238C119.325 40.6238 120.657 39.7794 121.414 38.4222L121.353 38.3318C120.808 38.6635 120.263 38.8445 119.567 38.8445C118.447 38.8445 117.902 38.5127 117.902 37.8191V31.9381L120.657 31.9984C120.778 31.8778 120.899 31.6667 121.05 31.3952C121.202 31.1238 121.262 30.9127 121.262 30.7619L117.902 30.8524L117.962 29.7968C117.962 29.3445 118.023 29.0429 118.053 28.8318L117.932 28.7714C117.054 29.646 115.661 30.7318 114.389 31.546V31.6365L115.328 32.5413C115.328 32.9032 115.328 33.5064 115.328 34.2905V38.4524C115.328 39.7191 116.388 40.5937 117.992 40.5937M113.42 40.081C113.178 40.081 113.027 39.9603 112.966 39.8095C112.906 39.6587 112.875 39.146 112.875 38.2413V33.1746C112.875 31.6667 111.907 30.5508 110.544 30.5508C109.182 30.5508 108.515 31.1238 107.214 32.1191C107.214 31.2143 107.274 30.7016 107.304 30.5508H107.183C106.366 30.9429 104.943 31.5159 103.853 31.8476V31.9683L104.367 32.7222C104.549 32.9635 104.61 33.1445 104.61 33.5365V38.2413C104.61 39.146 104.579 39.6587 104.489 39.8095C104.428 39.9603 104.246 40.0508 103.974 40.1111H103.762V40.4429C104.307 40.4429 105.185 40.4127 105.881 40.4127C106.578 40.4127 107.486 40.4127 108.001 40.4429V40.1413H107.728C107.486 40.081 107.335 39.9603 107.274 39.8095C107.214 39.6587 107.183 39.146 107.183 38.2413V32.3603C107.547 32.1794 108.001 32.1191 108.364 32.1191C109.575 32.1191 110.181 33.0841 110.181 35.0746V38.2413C110.181 39.146 110.181 39.6587 110.09 39.8095C110.029 39.9603 109.848 40.0508 109.575 40.1111H109.363V40.4429C109.908 40.4429 110.756 40.4127 111.483 40.4127C112.209 40.4127 113.027 40.4127 113.602 40.4429V40.1413H113.33L113.42 40.081ZM100.31 32.9937C100.31 33.3254 100.129 33.5365 99.7652 33.5365L96.9191 33.6572C97.1613 32.1492 98.0091 31.1238 99.0082 31.1238C100.007 31.1238 100.34 31.7873 100.34 32.9937M102.732 37.7889C102.066 38.5429 101.37 38.8445 100.462 38.8445C98.2513 38.8445 96.8282 37.1857 96.8282 34.5921C96.8282 31.9984 96.8282 34.1397 96.8282 34.0492H101.703C102.278 34.0492 102.581 33.7476 102.581 33.2349C102.581 31.6365 101.219 30.5508 99.2505 30.5508C97.2824 30.5508 96.586 31.154 95.6171 32.2095C94.7088 33.2349 94.2243 34.5318 94.2243 35.9794C94.2243 37.427 94.6482 38.4826 95.5263 39.3572C96.4043 40.2318 97.4943 40.654 98.7963 40.654C100.098 40.654 100.492 40.4127 101.219 39.8699C101.975 39.327 102.49 38.6937 102.823 37.8794L102.702 37.8191L102.732 37.7889ZM84.596 37.0349C83.6877 35.8587 83.2032 34.3206 83.2032 32.6318C83.2032 30.9429 83.6574 29.4349 84.5355 28.3191C85.4438 27.2032 86.5943 26.6603 88.0174 26.6603C89.4405 26.6603 90.2882 27.1127 91.1057 28.0476C91.681 28.6508 92.1655 29.5857 92.5893 30.6714L92.771 30.5508L92.2563 27.0222C90.7121 26.2683 89.501 25.9667 87.9568 25.9667C86.4127 25.9667 83.8391 26.7206 82.3555 28.0778C80.8416 29.4952 80.0241 31.3952 80.0241 33.5365C80.0241 35.6778 80.781 37.3667 82.1738 38.6333C83.5363 39.8699 85.4438 40.5937 87.4118 40.5937C89.3799 40.5937 91.3177 39.9 92.5893 38.6032L93.3463 36.3413L93.1646 36.2206C92.1957 38.0905 90.7727 38.9953 88.6532 38.9953C86.5338 38.9953 85.5952 38.2413 84.596 36.9746M72.606 29.3143C73.7263 29.4048 74.2107 29.7667 74.2107 30.4905C74.2107 31.2143 73.2418 32.481 71.8188 32.9032L71.9399 33.0841C73.1207 32.8429 74.0593 32.3603 74.7557 31.6064C75.5127 30.8524 75.876 30.0381 75.876 29.073C75.876 28.1079 75.0585 26.9016 73.9685 26.9016C72.8785 26.9016 72.3941 27.5048 72.3941 28.3794C72.3941 29.254 72.4849 29.073 72.6363 29.2841M70.9105 37.3064C70.9105 36.5524 70.638 35.8889 70.0627 35.3762C69.6993 35.0445 69.3057 34.773 68.1855 34.2603C67.3982 33.8984 66.8532 33.5968 66.6413 33.3556C66.3991 33.1143 66.3082 32.8429 66.3082 32.5413C66.3082 31.727 66.9441 31.154 67.8524 31.154C68.7607 31.154 69.881 31.8476 70.3352 33.2048H70.4563L70.3352 31.2746C69.5782 30.7921 68.791 30.5508 67.8524 30.5508C66.9138 30.5508 65.9449 30.8524 65.2485 31.4556C64.5521 32.0587 64.2191 32.7826 64.2191 33.6572C64.2191 34.5318 64.4613 35.0445 64.976 35.5572C65.3393 35.8889 65.7027 36.1302 66.7927 36.6429C68.3368 37.3968 68.6396 37.7587 68.6396 38.4524C68.6396 39.4476 67.9432 40.0508 66.823 40.0508C65.7027 40.0508 64.431 39.0857 63.9768 37.3968H63.8255C63.8255 37.427 63.9768 39.8397 63.9768 39.8397C64.5824 40.2921 65.8843 40.654 66.9743 40.654C68.0643 40.654 69.003 40.3222 69.7296 39.6889C70.4866 39.0556 70.8802 38.2714 70.8802 37.3365M57.2552 31.154C58.436 31.154 59.2232 32.2397 59.2232 33.6873V38.9953C58.8902 39.1159 58.4663 39.1762 58.0424 39.1762C57.1038 39.1762 56.3468 38.7841 55.711 38.0302C55.1055 37.246 54.8027 36.2508 54.8027 34.9841C54.8027 32.6016 55.711 31.154 57.2552 31.154ZM62.3721 39.4476C61.9482 39.3873 61.8271 39.2064 61.8271 38.5429V29.3143C61.8271 26.781 61.8271 25.3333 61.918 24.7H61.7968C60.616 25.0921 59.3141 25.5143 58.2846 25.7254V25.846L58.9507 26.6302C59.1324 26.8111 59.193 27.0222 59.193 27.3841V30.8524C58.648 30.6714 58.0121 30.5206 57.4671 30.5206C56.0138 30.5206 54.621 31.1238 53.6218 32.1191C52.5924 33.1445 52.0777 34.5016 52.0777 36.0397C52.0777 37.5778 52.4713 38.4222 53.2282 39.2968C53.9852 40.1714 54.9238 40.5937 56.0441 40.5937C57.1643 40.5937 57.013 40.4429 57.6185 40.1714C58.2241 39.9 58.7691 39.5683 59.2232 39.1762C59.2232 39.2968 59.2232 39.4175 59.2232 39.5381C59.2232 39.6587 59.2232 39.9905 59.1627 40.5635H59.2535C59.9196 40.3524 61.0096 40.0508 62.7355 39.6587V39.4476H62.4024H62.3721ZM50.9271 40.081C50.6849 40.081 50.5335 39.9603 50.473 39.8095C50.4124 39.6587 50.3821 39.146 50.3821 38.2413V33.1746C50.3821 31.6667 49.4132 30.5508 48.0507 30.5508C46.6882 30.5508 46.0221 31.1238 44.7202 32.1191C44.7202 31.2143 44.7807 30.7016 44.811 30.5508H44.6899C43.8724 30.9429 42.4494 31.5159 41.3594 31.8476V31.9683L41.8741 32.7222C42.0557 32.9635 42.1163 33.1445 42.1163 33.5365V38.2413C42.1163 39.146 42.086 39.6587 41.9952 39.8095C41.9346 39.9603 41.753 40.0508 41.4805 40.1111H41.2685V40.4429C41.8135 40.4429 42.6916 40.4127 43.388 40.4127C44.0844 40.4127 44.9927 40.4127 45.5074 40.4429V40.1413H45.2349C44.9927 40.081 44.8413 39.9603 44.7807 39.8095C44.7202 39.6587 44.6899 39.146 44.6899 38.2413V32.3603C45.0532 32.1794 45.5074 32.1191 45.8707 32.1191C47.0818 32.1191 47.6874 33.0841 47.6874 35.0746V38.2413C47.6874 39.146 47.6874 39.6587 47.5966 39.8095C47.536 39.9603 47.3543 40.0508 47.0818 40.1111H46.8699V40.4429C47.4149 40.4429 48.2627 40.4127 48.9893 40.4127C49.716 40.4127 50.5335 40.4127 51.1088 40.4429V40.1413H50.8363L50.9271 40.081ZM38.0288 32.9937C38.0288 33.3254 37.8471 33.5365 37.4838 33.5365L34.6377 33.6572C34.8799 32.1492 35.7277 31.1238 36.7269 31.1238C37.726 31.1238 38.0591 31.7873 38.0591 32.9937M40.451 37.7889C39.7849 38.5429 39.0885 38.8445 38.1802 38.8445C35.9699 38.8445 34.5468 37.1857 34.5468 34.5921C34.5468 31.9984 34.5468 34.1397 34.5468 34.0492H39.4216C39.9968 34.0492 40.2996 33.7476 40.2996 33.2349C40.2996 31.6365 38.9371 30.5508 36.9691 30.5508C35.001 30.5508 34.3046 31.154 33.3357 32.2095C32.4274 33.2349 31.943 34.5318 31.943 35.9794C31.943 37.427 32.3668 38.4826 33.2449 39.3572C34.123 40.2318 35.213 40.654 36.5149 40.654C37.8168 40.654 38.2105 40.4127 38.9371 39.8699C39.6941 39.327 40.2088 38.6937 40.5418 37.8794L40.4207 37.8191L40.451 37.7889ZM30.7924 40.081C30.5502 40.081 30.3988 39.9603 30.3382 39.8095C30.2777 39.6587 30.2474 39.146 30.2474 38.2413V33.0841C30.2474 32.0889 30.2474 31.0635 30.3382 30.5508H30.2171C29.3996 30.9429 27.9766 31.5159 26.8866 31.8476V31.9683L27.4013 32.7222C27.583 32.9635 27.6435 33.1445 27.6435 33.5365V38.2413C27.6435 39.146 27.6132 39.6587 27.5224 39.8095C27.4618 39.9603 27.2802 40.0508 27.0077 40.1111H26.7957V40.4429C27.3407 40.4429 28.2188 40.4127 28.9152 40.4127C29.6116 40.4127 30.5199 40.4127 31.0346 40.4429V40.1413H30.7621L30.7924 40.081ZM28.9757 25.8762C28.1582 25.8762 27.4921 26.5397 27.4921 27.3841C27.4921 28.2286 28.1582 28.8921 28.9757 28.8921C29.7932 28.8921 30.4593 28.2286 30.4593 27.3841C30.4593 26.5397 29.8235 25.8762 28.9757 25.8762ZM22.5568 40.0206C22.3146 40.0206 22.1632 39.9 22.1027 39.7492C22.0421 39.5683 22.0118 39.0556 22.0118 38.2111V33.1445C22.4055 32.7524 22.7082 32.5714 23.0413 32.5714C23.3743 32.5714 23.4349 32.6318 23.7982 32.9032C24.1918 33.2349 24.4341 33.2953 24.7066 33.2953C25.3727 33.2953 25.9782 32.7222 25.9782 31.9683C25.9782 31.2143 25.4635 30.5508 24.646 30.5508C23.8285 30.5508 23.1321 31.0937 22.0421 32.873V32.6619C22.0421 31.9984 22.0421 30.973 22.133 30.5206H22.0118C21.1338 30.9127 19.7107 31.4857 18.6813 31.8476V31.9683L19.196 32.7222C19.3777 32.9635 19.4382 33.1445 19.4382 33.5365V38.2413C19.4382 39.146 19.408 39.6587 19.3171 39.8095C19.2566 39.9603 19.0749 40.0508 18.8024 40.1111H18.5905V40.4429C19.196 40.4429 20.1649 40.4127 20.9521 40.4127C21.7393 40.4127 22.6477 40.4127 23.3743 40.4429V40.1111L22.5568 40.0508V40.0206ZM12.4743 39.1762C12.4138 38.9952 12.3532 38.4826 12.3532 37.6683C12.3532 36.854 12.3532 35.5572 12.3532 33.7175V33.5064H13.5341C14.5635 33.5365 15.1993 33.627 15.5627 33.8683C16.0471 34.1397 16.2288 34.5921 16.2893 35.6778H16.6224C16.5618 34.8937 16.5618 34.1397 16.5618 33.2651C16.5618 32.3905 16.5618 31.6365 16.6224 30.8524H16.2893C16.2288 31.9683 16.0471 32.4206 15.593 32.6619C15.1993 32.9032 14.5635 32.9937 13.5643 32.9937H12.3835V32.9333C12.3835 31.4556 12.3835 30.3095 12.3835 29.4349L12.4441 27.0222C13.1405 26.8413 13.6249 26.781 14.4727 26.781C15.8655 26.781 16.8041 27.0222 17.4702 27.5651C18.0757 28.0476 18.4996 28.7413 18.9538 30.2492H19.1355C18.9841 29.0429 18.8932 27.9572 18.8024 26.0873C18.1363 26.1778 16.5013 26.2079 13.8066 26.2079H7.47852V26.5397C8.7199 26.5397 9.17407 26.7508 9.35574 27.354C9.41629 27.5651 9.47685 27.9873 9.50713 28.5905C9.50713 29.1937 9.5374 30.6714 9.5374 32.9333V33.6873C9.5374 35.9492 9.5374 37.427 9.50713 38.0302C9.50713 38.6333 9.41629 39.0556 9.35574 39.2667C9.17407 39.8699 8.75018 40.0508 7.56935 40.081V40.4127C9.08324 40.4127 10.0521 40.3826 11.021 40.3826C11.9899 40.3826 12.9285 40.3826 14.8966 40.4127V40.081C13.2616 40.0206 12.7166 39.8397 12.5349 39.146" fill="white"/>
</g>
</svg>
