<svg width="119" height="116" viewBox="0 0 119 116" fill="none" xmlns="http://www.w3.org/2000/svg">
<g clip-path="url(#clip0_14999_12744)">
<mask id="mask0_14999_12744" style="mask-type:luminance" maskUnits="userSpaceOnUse" x="0" y="0" width="119" height="116">
<path d="M119 0H0V116H119V0Z" fill="white"/>
</mask>
<g mask="url(#mask0_14999_12744)">
<path d="M8.78605 90.5909C11.8479 90.5909 14.6989 90.2814 16.3629 89.6957C16.7401 89.5741 16.7623 89.5078 16.7623 89.3199C16.7623 89.0326 16.0967 88.9442 16.0967 88.2811V85.0429C16.0967 84.3798 16.2631 83.9819 18.1379 83.9819C18.6371 83.9819 18.6371 83.8382 18.6371 83.584C18.6371 83.374 18.6371 83.2746 18.4485 83.2746C18.2821 83.2746 18.1822 83.3188 14.8653 83.3188C11.3487 83.3188 10.7163 83.2746 10.5499 83.2746C10.1173 83.2746 10.1173 83.374 10.1173 83.584C10.1173 83.8382 10.1173 83.9819 11.5594 83.9819C13.4342 83.9819 13.7448 84.1698 13.7448 84.6892V88.2811C13.7448 89.7288 12.2029 89.983 9.82884 89.983C6.57845 89.983 2.82884 87.4964 2.82884 82.2689C2.82884 76.5882 6.45642 73.8032 9.40729 73.8032C12.8685 73.8032 14.9429 75.3173 15.5531 77.2071C15.8637 78.2239 16.1743 78.9091 16.2631 78.9091C16.496 78.9091 16.7623 78.8428 16.7623 78.677C16.7623 78.3013 16.6403 78.036 16.6403 75.483C16.6403 74.5105 16.6403 74.4442 16.4739 74.4442C16.2853 74.4442 15.9081 74.8973 15.7417 74.8973C15.6197 74.8973 15.4089 74.7757 15.3423 74.7315C13.7227 73.5932 11.8035 73.1953 8.78605 73.1953C4.24881 73.1953 0 76.6766 0 82.3683C0 85.5402 2.3962 90.6019 8.78605 90.6019" fill="white"/>
</g>
<path d="M36.5753 86.4916C36.4311 86.4916 36.3645 86.5358 36.2647 86.6352C35.7655 87.2762 34.3899 89.5419 33.4913 89.5419H27.8447C26.9683 89.5419 26.6799 89.2324 26.6799 88.3151V82.2145H28.4105C30.7179 82.2145 31.1395 82.3582 31.4945 84.9112C31.5166 85.0769 31.561 85.1653 31.8495 85.1653C31.9937 85.1653 32.1601 85.1432 32.1601 84.9775C32.1601 84.3807 32.038 83.5849 32.038 82.1592V78.6116C32.038 78.4679 31.8716 78.4458 31.5832 78.4458C31.4168 78.4458 31.3502 78.4458 31.0618 80.192C31.0174 80.4573 30.8289 81.4961 28.2663 81.4961H26.6799V76.0586C26.6799 74.7324 26.8241 74.2572 27.3677 74.2351C28.2663 74.1909 30.3075 74.0914 30.9287 74.0914C31.6387 74.0914 32.2155 74.3235 32.5705 74.633C34.6561 76.3791 34.8447 77.0644 35.233 77.0644C35.4437 77.0644 35.588 77.0423 35.588 76.8986C35.588 76.7549 35.1553 75.7381 34.5452 73.5609C34.5008 73.373 34.1902 73.373 33.6466 73.373C31.916 73.373 28.4437 73.4725 25.6704 73.4725C24.1727 73.4725 22.1094 73.373 21.9208 73.373C21.7544 73.373 21.71 73.5388 21.71 73.6825C21.71 73.8925 21.71 74.0804 21.9762 74.0804C23.8732 74.0804 24.2837 74.2682 24.3059 75.6608C24.3281 76.7549 24.3502 77.3186 24.3502 78.9984V84.7896C24.3502 85.8064 24.3281 87.3426 24.2837 88.5251C24.2615 89.1661 24.1173 89.564 22.2425 89.564C21.7433 89.564 21.7433 89.7077 21.7433 89.9618C21.7433 90.1718 21.7433 90.2713 21.9319 90.2713C22.0983 90.2713 22.1981 90.2271 25.6815 90.2271H35.4881C35.7544 90.2271 36.9857 86.7016 36.9857 86.6352C36.9857 86.4916 36.8415 86.4695 36.6086 86.4695" fill="white"/>
<path d="M49.588 89.9726C45.2171 89.9726 43.6308 85.1651 43.6308 81.9048C43.6308 79.9597 44.0523 73.7927 49.588 73.7927C53.981 73.7927 55.5674 78.5008 55.5674 81.8827C55.5674 84.7009 55.1902 89.9726 49.588 89.9726ZM49.588 73.1738C45.0507 73.1738 40.8019 76.6552 40.8019 82.3469C40.8019 85.5187 43.1981 90.5805 49.588 90.5805C55.9778 90.5805 58.3962 85.5187 58.3962 82.2363C58.3962 76.1799 54.6244 73.1738 49.588 73.1738Z" fill="white"/>
<path d="M69.4121 82.0481H67.4596V75.7817C67.4596 74.2234 67.7924 74.1018 69.2456 74.1018C71.9747 74.1018 73.3059 75.848 73.3059 78.0252C73.3059 80.2025 72.2631 82.0481 69.4121 82.0481ZM78.5309 89.6628C77.1109 89.6407 76.8891 89.3534 75.1807 87.2977C72.9731 84.6453 71.7861 82.4681 71.7861 82.3355C71.7861 82.247 71.9303 82.1918 72.0523 82.1476C74.6593 81.1087 75.8685 79.9925 75.8685 77.7268C75.8685 74.3229 72.496 73.3945 69.7449 73.3945C68.3471 73.3945 66.8938 73.494 66.2726 73.494C64.775 73.494 63.0666 73.3945 62.878 73.3945C62.7116 73.3945 62.6672 73.5603 62.6672 73.704C62.6672 73.914 62.6672 74.1018 62.9224 74.1018C64.6308 74.1018 65.0301 74.2897 65.0634 75.6823C65.0856 76.7764 65.1078 77.34 65.1078 79.0199V84.8111C65.1078 85.8278 65.0856 87.364 65.0412 88.5466C65.019 89.1876 64.8748 89.5855 63.355 89.5855C62.6894 89.5855 62.6894 89.7291 62.6894 89.9833C62.6894 90.1933 62.6894 90.2928 62.878 90.2928C63.0444 90.2928 63.1442 90.2486 66.2726 90.2486C69.7892 90.2486 69.878 90.2928 70.0444 90.2928C70.233 90.2928 70.233 90.1933 70.233 89.9833C70.233 89.7291 70.233 89.5855 69.5674 89.5855C67.6926 89.5855 67.5483 89.1876 67.5262 88.5466C67.4818 87.364 67.4596 85.8278 67.4596 84.8111V82.7554C68.4358 82.7333 68.9794 82.7333 69.9556 83.7059C70.8098 84.5569 72.374 87.563 74.3487 90.1159C74.4929 90.3038 74.5594 90.3038 74.7813 90.3038C74.9033 90.3038 75.0143 90.2596 76.4675 90.2596C78.1981 90.2596 78.298 90.3038 78.42 90.3038C78.6308 90.3038 78.7084 90.2044 78.7084 89.9502C78.7084 89.8065 78.7084 89.6628 78.542 89.6628" fill="white"/>
<path d="M100.496 83.2531C100.33 83.2531 100.23 83.2973 96.9128 83.2973C93.3962 83.2973 92.7528 83.2531 92.5864 83.2531C92.1648 83.2531 92.1648 83.3526 92.1648 83.5625C92.1648 83.8167 92.1648 83.9604 93.607 83.9604C95.4818 83.9604 95.7924 84.1483 95.7924 84.6677V88.2596C95.7924 89.7074 94.2504 89.9616 91.8764 89.9616C88.626 89.9616 84.8764 87.4749 84.8764 82.2474C84.8764 76.5667 88.504 73.7817 91.4548 73.7817C94.916 73.7817 96.9905 75.2958 97.6006 77.1856C97.9113 78.2024 98.2219 78.8876 98.3106 78.8876C98.5436 78.8876 98.8098 78.8213 98.8098 78.6555C98.8098 78.2798 98.6878 78.0145 98.6878 75.4616C98.6878 74.489 98.6878 74.4227 98.5214 74.4227C98.3328 74.4227 97.9556 74.8758 97.7892 74.8758C97.6672 74.8758 97.4564 74.7542 97.3899 74.71C95.7702 73.5717 93.851 73.1738 90.8336 73.1738C86.2964 73.1738 82.0475 76.6552 82.0475 82.3469C82.0475 85.5187 84.4437 90.5805 90.8336 90.5805C93.8954 90.5805 96.7464 90.271 98.4105 89.6853C98.7876 89.5637 98.8098 89.4974 98.8098 89.3095C98.8098 89.0222 98.1442 88.9337 98.1442 88.2706V85.0324C98.1442 84.3693 98.3106 83.9715 100.185 83.9715C100.685 83.9715 100.685 83.8278 100.685 83.5736C100.685 83.3636 100.685 83.2641 100.496 83.2641" fill="white"/>
<path d="M118.623 86.4916C118.479 86.4916 118.412 86.5358 118.312 86.6352C117.813 87.2762 116.437 89.5419 115.539 89.5419H109.892C109.016 89.5419 108.727 89.2324 108.727 88.3151V82.2145H110.458C112.765 82.2145 113.187 82.3582 113.542 84.9112C113.564 85.0769 113.609 85.1653 113.897 85.1653C114.041 85.1653 114.208 85.1432 114.208 84.9775C114.208 84.3807 114.086 83.5849 114.086 82.1592V78.6116C114.086 78.4679 113.919 78.4458 113.631 78.4458C113.464 78.4458 113.398 78.4458 113.109 80.192C113.065 80.4573 112.876 81.4961 110.303 81.4961H108.716V76.0586C108.716 74.7324 108.861 74.2572 109.404 74.2351C110.303 74.1909 112.344 74.0914 112.965 74.0914C113.675 74.0914 114.252 74.3235 114.607 74.633C116.693 76.3791 116.881 77.0644 117.269 77.0644C117.48 77.0644 117.624 77.0423 117.624 76.8986C117.624 76.7549 117.192 75.7381 116.582 73.5609C116.537 73.373 116.227 73.373 115.683 73.373C113.952 73.373 110.48 73.4725 107.707 73.4725C106.209 73.4725 104.146 73.373 103.957 73.373C103.791 73.373 103.746 73.5388 103.746 73.6825C103.746 73.8925 103.746 74.0804 104.013 74.0804C105.91 74.0804 106.32 74.2682 106.342 75.6608C106.365 76.7549 106.387 77.3186 106.387 78.9984V84.7896C106.387 85.8064 106.364 87.3426 106.32 88.5251C106.298 89.1661 106.154 89.564 104.279 89.564C103.78 89.564 103.78 89.7077 103.78 89.9618C103.78 90.1718 103.78 90.2713 103.968 90.2713C104.135 90.2713 104.235 90.2271 107.718 90.2271H117.525C117.791 90.2271 119.022 86.7016 119.022 86.6352C119.022 86.4916 118.878 86.4695 118.645 86.4695" fill="white"/>
<path d="M4.92552 105.048C4.04913 104.484 3.0729 103.799 3.0729 102.208C3.0729 100.362 4.54834 99.2016 6.21237 99.2016C8.46435 99.2016 9.44057 101.003 10.1062 102.849C10.1506 102.992 10.2504 102.992 10.5056 102.992C10.6276 102.992 10.7385 102.871 10.7385 102.76C10.7385 102.595 10.3835 100.749 10.3835 98.9032C10.3835 98.7153 10.317 98.5938 10.1727 98.5938C9.98416 98.5938 9.79557 99.0248 9.52932 99.0248C8.98574 99.0248 8.00951 98.5938 6.3233 98.5938C2.80666 98.5938 1.15373 100.915 1.15373 103.401C1.15373 105.888 2.79557 106.783 4.75912 107.822C8.08717 109.568 9.03012 110.353 9.03012 112.132C9.03012 114.022 7.88748 115.393 5.72425 115.393C3.28368 115.393 2.09668 113.735 1.542 111.867C1.49763 111.635 1.47544 111.558 1.27576 111.558C0.987326 111.558 0.798737 111.602 0.798737 111.79C0.798737 111.911 0.965139 112.851 1.13154 115.381C1.15373 115.614 1.17592 115.647 1.34232 115.669C2.36292 115.813 3.81617 116 5.52457 116C8.75278 116 11.271 114.553 11.271 111.082C11.271 107.612 7.64343 106.783 4.90333 105.048" fill="white"/>
<path d="M31.8495 111.27C31.6165 111.27 31.5166 111.336 31.4723 111.457C30.1189 114.386 27.767 115.381 25.9588 115.381C22.7084 115.381 18.9588 112.894 18.9588 107.667C18.9588 101.986 22.5864 99.2009 25.5372 99.2009C28.4881 99.2009 30.0967 100.671 31.1173 103.268C31.1838 103.456 31.3059 103.456 31.3835 103.456C31.5499 103.456 31.8384 103.367 31.8384 103.146C31.8384 102.959 31.3835 100.803 31.3835 99.3667C31.3835 99.1346 31.2615 99.0794 31.2171 99.0794C30.8843 99.0794 30.7179 99.4772 30.2964 99.4772C29.6529 99.4772 28.9651 98.582 24.9271 98.582C20.3899 98.582 16.1411 102.063 16.1411 107.755C16.1411 110.927 18.5372 115.989 24.9271 115.989C28.2995 115.989 30.2409 115.469 31.4612 115.093C31.6941 115.027 31.794 114.883 31.794 114.662C31.794 114.165 32.1268 111.822 32.1268 111.535C32.1268 111.27 32.0048 111.247 31.8716 111.247" fill="white"/>
<path d="M52.8716 101.102C52.8938 99.7097 53.3043 99.5218 55.3677 99.5218C55.6339 99.5218 55.6339 99.3339 55.6339 99.1239C55.6339 98.9802 55.5895 98.8145 55.4231 98.8145C55.2345 98.8145 53.1712 98.9139 51.6735 98.9139C50.1759 98.9139 48.0903 98.8145 47.9017 98.8145C47.7353 98.8145 47.691 98.9802 47.691 99.1239C47.691 99.3339 47.691 99.5218 47.9572 99.5218C50.0206 99.5218 50.4311 99.7097 50.4532 101.102C50.4754 102.185 50.4976 102.76 50.4976 104.44V106.849H41.0681V104.44C41.0681 102.76 41.0903 102.196 41.1125 101.102C41.1347 99.7097 41.5452 99.5218 43.6086 99.5218C43.8748 99.5218 43.8748 99.3339 43.8748 99.1239C43.8748 98.9802 43.8304 98.8145 43.664 98.8145C43.4754 98.8145 41.412 98.9139 39.8922 98.9139C38.3724 98.9139 36.3312 98.8145 36.1426 98.8145C35.9762 98.8145 35.9319 98.9802 35.9319 99.1239C35.9319 99.3339 35.9319 99.5218 36.1981 99.5218C38.2615 99.5218 38.672 99.7097 38.6941 101.102C38.7163 102.185 38.7385 102.76 38.7385 104.44V110.231C38.7385 111.248 38.7163 112.784 38.672 113.967C38.6498 114.608 38.5055 115.005 36.6307 115.005C35.9651 115.005 35.9651 115.149 35.9651 115.403C35.9651 115.613 35.9651 115.713 36.1537 115.713C36.3201 115.713 36.42 115.668 39.9033 115.668C43.3867 115.668 43.5087 115.713 43.6751 115.713C43.8637 115.713 43.8637 115.624 43.8637 115.403C43.8637 115.138 43.8637 115.005 43.1981 115.005C41.3233 115.005 41.1791 114.608 41.1569 113.967C41.1125 112.784 41.0903 111.248 41.0903 110.231V107.556H50.5198V110.231C50.5198 111.248 50.4976 112.784 50.4422 113.967C50.42 114.608 50.2758 115.005 48.401 115.005C47.7353 115.005 47.7353 115.149 47.7353 115.403C47.7353 115.613 47.7353 115.713 47.9239 115.713C48.0903 115.713 48.1791 115.668 51.6957 115.668C55.2124 115.668 55.2789 115.713 55.4453 115.713C55.6339 115.713 55.6339 115.624 55.6339 115.403C55.6339 115.138 55.6339 115.005 54.9683 115.005C53.0935 115.005 52.9493 114.608 52.9271 113.967C52.8827 112.784 52.8494 111.248 52.8494 110.231V104.44C52.8494 102.76 52.8716 102.196 52.8938 101.102" fill="white"/>
<path d="M68.3582 115.381C63.9873 115.381 62.401 110.574 62.401 107.314C62.401 105.369 62.8225 99.2016 68.3582 99.2016C72.7512 99.2016 74.3376 103.91 74.3376 107.292C74.3376 110.11 73.9604 115.381 68.3582 115.381ZM68.3582 98.5938C63.8209 98.5938 59.5721 102.075 59.5721 107.778C59.5721 110.95 61.9683 116.011 68.3582 116.011C74.748 116.011 77.1664 110.95 77.1664 107.667C77.1664 101.611 73.3946 98.6048 68.3582 98.6048" fill="white"/>
<path d="M90.5119 115.381C86.141 115.381 84.5547 110.574 84.5547 107.314C84.5547 105.369 84.9762 99.2016 90.5119 99.2016C94.9049 99.2016 96.4913 103.91 96.4913 107.292C96.4913 110.11 96.1141 115.381 90.5119 115.381ZM90.5119 98.5938C85.9746 98.5938 81.7258 102.075 81.7258 107.778C81.7258 110.95 84.122 116.011 90.5119 116.011C96.9017 116.011 99.3201 110.95 99.3201 107.667C99.3201 101.611 95.5483 98.6048 90.5119 98.6048" fill="white"/>
<path d="M117.802 110.795C117.591 110.795 117.636 110.96 117.469 111.458C116.36 114.817 114.618 114.939 110.968 114.939C109.16 114.939 108.494 114.818 108.472 113.967C108.428 112.784 108.395 111.248 108.395 110.231V104.44C108.395 102.76 108.417 102.196 108.439 101.102C108.461 99.7097 108.872 99.5218 110.935 99.5218C111.201 99.5218 111.201 99.3339 111.201 99.1239C111.201 98.9802 111.157 98.8145 110.991 98.8145C110.802 98.8145 108.739 98.9139 107.219 98.9139C105.699 98.9139 103.78 98.8145 103.591 98.8145C103.425 98.8145 103.38 98.9802 103.38 99.1239C103.38 99.3339 103.38 99.5218 103.647 99.5218C105.599 99.5218 105.998 99.7097 106.021 101.102C106.043 102.196 106.065 102.76 106.065 104.44V110.231C106.065 111.248 106.043 112.784 105.998 113.967C105.976 114.608 105.832 115.005 103.957 115.005C103.414 115.005 103.414 115.149 103.414 115.403C103.414 115.613 103.414 115.713 103.602 115.713C103.769 115.713 103.868 115.668 107.352 115.668C116.637 115.668 116.914 115.713 117.181 115.713C117.303 115.713 117.391 115.668 117.414 115.525C117.813 113.138 118.312 111.193 118.312 111.082C118.312 110.872 118.268 110.795 117.813 110.795" fill="white"/>
<path d="M44.9398 28.2587C44.0745 28.0818 43.1981 27.7613 42.4104 27.2308C41.9334 26.9103 41.523 26.5456 41.168 26.1367L40.8795 26.6009C40.8241 26.6893 40.0364 27.9382 38.6719 29.0655C39.9477 29.2975 41.7892 29.8612 43.0206 31.2869C44.1854 32.6352 44.5182 34.4035 44.5959 35.6855C46.0935 35.7297 47.7575 35.9507 49.7654 36.5144C49.7654 36.2049 49.8098 35.8844 49.8653 35.5639C47.5467 33.652 45.6276 31.1764 44.9398 28.2587Z" fill="white"/>
<path d="M81.4041 38.2954L81.2932 38.9585L80.6165 38.9143C80.5277 38.9143 78.9192 38.7927 77.4992 37.9307C74.0491 38.3617 70.8542 39.5222 68.4913 41.8099C68.7131 42.9151 68.702 43.744 68.702 43.8213V44.5286L67.981 44.5949C67.9477 44.5949 67.7147 44.617 67.3486 44.617C67.0935 44.617 66.7607 44.617 66.3946 44.5728C66.0396 45.2138 65.729 45.8991 65.4738 46.6506C63.5547 52.2096 64.5642 59.5039 69.2123 63.2836H88.2044V38.4059C86.0523 38.0191 83.7559 37.7539 81.4596 37.7207C81.4374 38.0412 81.4041 38.2512 81.4041 38.2843" fill="white"/>
<path d="M87.0729 33.8965C85.7638 34.9133 84.4548 35.6427 83.0792 36.1732C83.1791 36.1732 83.2789 36.1953 83.3788 36.1953C84.9984 36.3389 86.607 36.5821 88.2044 36.8915V33.9407C88.1268 33.9407 88.0602 33.9407 87.9825 33.9407C87.6941 33.9407 87.3835 33.9296 87.0729 33.8965Z" fill="white"/>
<path d="M62.9002 57.248C62.645 56.1649 62.4786 55.0155 62.4231 53.8108C62.2456 50.5505 62.8003 47.1355 64.3312 44.1957C64.1759 44.1515 64.0095 44.0963 63.8431 44.041C60.9033 47.4008 59.561 51.6668 59.5055 56.2864C59.4501 58.6294 59.672 60.9945 60.2266 63.2822H64.9525C64.3645 62.1329 63.9208 60.9945 63.588 59.9446C63.2995 59.0052 63.0777 58.0989 62.9113 57.2369" fill="white"/>
<path d="M41.1458 13.6927C43.9303 15.041 44.9065 18.5444 44.9398 18.6881L45.0951 19.2739C45.8051 19.4617 46.5039 19.7601 47.1585 20.1912C47.5245 20.4343 47.8574 20.7217 48.1569 21.0201C48.2567 20.1912 48.4786 19.3623 48.8114 18.5555C47.5356 17.7156 45.0507 15.7704 44.3185 12.897C44.1965 12.3996 44.1188 11.9023 44.0967 11.416L41.0792 13.6706C41.0792 13.6706 41.1236 13.6927 41.1458 13.7037V13.6927Z" fill="white"/>
<mask id="mask1_14999_12744" style="mask-type:luminance" maskUnits="userSpaceOnUse" x="0" y="0" width="119" height="116">
<path d="M119 0H0V116H119V0Z" fill="white"/>
</mask>
<g mask="url(#mask1_14999_12744)">
<path d="M82.7242 20.7667C84.1553 21.8608 84.9984 23.1981 85.0539 23.2754L85.4311 23.8833L84.8653 24.3143C84.8098 24.3585 84.1553 24.8559 83.1569 25.32C83.0903 25.8837 82.9905 26.4473 82.8574 26.9889C84.0222 26.8231 86.0856 26.7457 87.7607 27.8177C87.916 27.9172 88.0713 28.0277 88.2044 28.1382V21.5624L85.0872 19.2305C84.4881 19.551 83.9112 19.9157 83.3566 20.3025C83.1458 20.4572 82.935 20.6119 82.7242 20.7777" fill="white"/>
<path d="M58.1854 8.49952C59.0174 8.76477 60.393 9.30631 61.6133 10.2789C61.5689 7.69274 62.0127 5.08451 62.9002 2.65311L59.3613 0.0117188L57.2092 1.61423C57.9414 2.58679 58.6624 3.90196 58.7623 5.41606C58.8399 6.54335 58.5626 7.60432 58.1743 8.51057" fill="white"/>
</g>
<path d="M51.7956 16.3795C52.2726 16.9653 52.794 17.5179 53.3708 18.0152C54.0919 17.1421 54.5689 16.0701 54.813 14.9538C55.0903 13.6829 55.0903 12.3125 54.8019 10.9973C53.9477 10.1905 52.2171 8.28959 52.0507 5.86924C52.0507 5.73661 52.0396 5.60399 52.0396 5.48242L49.9984 7.00757C50.9635 7.99119 51.8843 9.28425 52.2837 10.8647C52.8051 12.8761 52.3613 14.8986 51.7956 16.3906" fill="white"/>
<path d="M36.5864 23.685C35.0555 22.7125 33.6466 21.4968 32.4263 20.1484L30.5293 21.5631V25.166C31.4279 24.4587 32.5483 23.8397 33.8463 23.6077C34.8003 23.4419 35.7322 23.5082 36.5975 23.685" fill="white"/>
<path d="M39.3819 23.043C38.8383 21.5731 38.7163 20.3353 38.7052 20.2358L38.6719 19.9153C38.5166 19.86 38.3613 19.7937 38.206 19.7164C37.1743 19.219 36.3867 18.4233 35.8098 17.6055L33.3582 19.4401C33.7575 19.7937 34.168 20.1253 34.6006 20.4458C36.0539 21.5178 37.6846 22.4572 39.393 23.043" fill="white"/>
<path d="M67.981 13.9588C66.0507 16.5339 64.9192 19.6726 64.775 22.8777C66.0507 22.1593 67.4596 21.6399 68.9572 21.3415L68.935 21.0873C68.9239 20.8994 68.6244 16.3018 71.3645 13.4615C72.3185 12.4668 73.5056 11.8369 74.6482 11.439L72.4295 9.78125C70.71 10.9085 69.1902 12.3232 67.981 13.9588Z" fill="white"/>
<path d="M76.7227 19.5956C77.6545 19.3414 78.6973 19.2087 79.7734 19.4077C80.317 19.5071 80.8272 19.684 81.3043 19.905C82.1141 19.3082 82.9794 18.7888 83.878 18.3357L79.374 14.9648C79.0523 16.3463 78.4421 17.8825 77.2551 19.0982C77.0887 19.2751 76.9002 19.4408 76.7227 19.5956Z" fill="white"/>
<path d="M36.7528 36.117C34.8003 34.7908 33.2472 32.8568 32.2599 30.7016C31.6276 30.558 31.0396 30.348 30.5293 30.127V36.968C32.2488 36.6254 33.9905 36.3491 35.7544 36.1944C36.0872 36.1613 36.42 36.1391 36.7528 36.117Z" fill="white"/>
<path d="M62.3011 43.3115C61.9905 43.1126 61.691 42.8916 61.4136 42.6263C60.149 41.4548 59.5388 39.8744 59.2504 38.5703C58.6292 39.6755 57.8526 40.6923 56.9097 41.5985C58.2076 43.3115 59.1173 45.113 59.8716 46.9918C60.5594 45.6987 61.3693 44.472 62.3122 43.3005" fill="white"/>
<path d="M52.5166 60.365C54.8906 56.3753 55.1458 51.0483 53.6704 46.6718C52.5943 43.5552 50.6751 41.4222 48.2678 40.0296C47.8574 40.4606 47.3582 40.8475 46.7591 41.1127C46.1157 41.389 45.4501 41.4885 44.8288 41.4885C43.3756 41.4885 42.1664 40.958 42.0887 40.9248L41.4453 40.6375L41.6672 39.9633C41.6894 39.897 41.9889 39.0129 42.6656 38.0956C38.7274 37.4214 34.3788 37.7751 30.5182 38.5045V63.3048H49.9429C50.9524 62.509 51.8288 61.5365 52.5166 60.376" fill="white"/>
<path d="M50.3312 23.8498C50.9968 25.9497 52.8051 27.7622 55.2789 28.8232C55.0792 27.2096 55.0571 24.7008 56.3439 22.612C56.4326 22.4684 56.5214 22.3357 56.6212 22.1921C54.5135 21.3632 52.6609 19.9596 51.2076 18.125C50.0539 20.0259 49.7433 21.9821 50.3312 23.8388" fill="white"/>
<path d="M63.4216 8.25634C63.9984 7.26167 64.9636 5.97966 66.3946 5.26129L64.1759 3.60352C63.9208 4.47661 63.7322 5.37181 63.5991 6.26701C63.4992 6.93012 63.4438 7.59323 63.4216 8.26739" fill="white"/>
<path d="M81.9255 29.8626C81.6371 30.581 81.3154 31.2883 80.9826 31.9846C80.7385 32.4708 80.4833 32.9461 80.2171 33.4103C80.2615 33.4655 80.3059 33.5208 80.3502 33.576C80.7163 34.0402 80.9715 34.5486 81.1379 35.057C82.5689 34.7475 83.9223 34.2502 85.2868 33.4655C84.9984 33.3439 84.71 33.2003 84.4215 33.0234C83.1458 32.2167 82.3692 30.9236 81.9255 29.8516" fill="white"/>
<path d="M70.6212 24.822C72.851 25.7282 74.2488 27.7507 74.9699 29.088C75.5024 27.7507 75.8352 26.3361 75.8574 24.9104C75.0143 24.3136 74.3597 23.6173 73.9271 23.0868C71.0317 22.689 68.1363 23.2195 65.8177 24.4904C67.2155 24.2141 68.9683 24.1368 70.6212 24.8109" fill="white"/>
<path d="M50.5753 27.9395L50.309 28.0168C50.1981 28.05 48.7781 28.4589 46.981 28.4589C46.9033 28.4589 46.8257 28.4589 46.748 28.4589C47.4913 30.4593 48.9445 32.1723 50.6418 33.5317C51.5848 31.9402 53.0491 30.8571 53.8922 30.3377C52.5943 29.7077 51.4738 28.8899 50.5753 27.9505" fill="white"/>
<path d="M60.4818 35.4548C61.7908 35.4769 64.42 35.7422 66.2504 37.4442C66.5499 37.7205 66.8051 38.0189 67.038 38.3283C67.1157 35.1896 66.2726 31.9846 64.3645 29.4537C63.8653 28.7795 63.2995 28.1606 62.6894 27.5859C62.0571 28.3596 61.2916 28.9785 60.5262 29.4537C60.9921 31.4983 60.9588 33.5429 60.4818 35.4438" fill="white"/>
<path d="M70.5547 32.3932C69.6783 32.3932 68.7575 32.2606 67.8589 31.918C68.5911 33.6531 69.0016 35.5209 69.1236 37.4107C70.7322 35.7198 72.252 33.9294 73.4944 31.9732C72.6846 32.1943 71.664 32.3932 70.5658 32.3932" fill="white"/>
<path d="M58.3407 20.4794C59.1284 19.8936 59.9604 19.4516 60.7037 19.1421C59.4279 18.5453 57.897 17.5396 56.9651 15.9481C56.7322 15.5503 56.5547 15.1413 56.4216 14.7324C56.4216 14.8871 56.4105 15.0419 56.3883 15.2077C56.2552 16.6223 55.7892 18.0148 55.0127 19.2305C55.2678 19.3852 55.5341 19.5289 55.8003 19.6615C56.6102 20.0594 57.4644 20.3357 58.3297 20.4904" fill="white"/>
<path d="M36.3423 30.4707C35.954 30.6254 35.5547 30.7359 35.1331 30.8133C34.7559 30.8796 34.3899 30.9128 34.0238 30.9128C34.8003 32.029 35.7433 33.0126 36.8415 33.7752C36.3978 32.5374 36.3312 31.2775 36.3534 30.4707" fill="white"/>
<path d="M66.794 11.4047C65.3518 11.4047 64.0761 10.9847 63.4992 10.7637C63.6767 12.4988 64.0872 14.2008 64.7528 15.8144C65.6846 14.1234 66.8827 12.5872 68.2805 11.25C67.7813 11.3605 67.2821 11.4157 66.794 11.4157" fill="white"/>
<path d="M75.1252 32.9785C74.5151 34.0726 73.8051 35.1226 73.0618 36.1283C74.0159 35.9625 74.8701 35.8851 75.6466 35.863C75.1807 34.8242 75.1141 33.719 75.1252 32.9785Z" fill="white"/>
<path d="M56.5103 31.066L56.0333 31.1544C56.6212 32.3811 57.4532 34.6799 56.832 36.9566C56.7322 37.3324 56.5879 37.6971 56.4215 38.0286C56.9651 37.4097 57.4421 36.7245 57.8193 35.973C58.7068 34.2379 59.0285 32.2596 58.8954 30.3145C57.6307 30.8449 56.6212 31.0439 56.5325 31.066" fill="white"/>
<path d="M78.5531 26.1043C78.1426 26.027 77.7544 25.9164 77.3772 25.7617C77.2995 27.751 76.7338 29.6741 75.8796 31.5087H75.9683C76.046 31.5087 77.4105 31.6192 78.7417 32.3044C79.5959 31.0003 80.3281 29.5967 80.916 28.171C81.2156 27.4195 81.4929 26.6569 81.6815 25.8943C81.0381 26.0822 80.3392 26.2038 79.607 26.2038C79.252 26.2038 78.897 26.1706 78.542 26.1154" fill="white"/>
<path d="M67.0713 43.0363C66.9604 41.9311 66.561 39.8755 65.1743 38.5935C63.7876 37.3115 61.7021 37.0683 60.5927 37.0352C60.7036 38.1403 61.103 40.196 62.4897 41.478C63.8764 42.76 65.9509 43.0031 67.0713 43.0363Z" fill="#00A65E"/>
<path d="M47.9461 37.7754C47.2583 37.5986 46.2044 37.4438 45.317 37.8417C44.4295 38.2285 43.8304 39.1016 43.4976 39.7316C44.1854 39.9084 45.2393 40.0631 46.1268 39.6653C47.0143 39.2674 47.6133 38.4054 47.9461 37.7754Z" fill="#00A65E"/>
<path d="M43.2868 25.9274C45.2171 27.2205 47.935 26.911 49.1775 26.6679C48.9334 25.4301 48.2013 22.7997 46.271 21.5067C44.3296 20.2026 41.6117 20.5231 40.3803 20.7662C40.6244 22.004 41.3455 24.6343 43.2868 25.9274Z" fill="#00A65E"/>
<path d="M72.5182 14.5444C70.8542 16.2574 70.5547 18.9209 70.5214 20.2029C71.8082 20.1145 74.4707 19.7166 76.1236 17.9925C77.7876 16.2795 78.0872 13.616 78.1204 12.334C76.8225 12.4224 74.1712 12.8203 72.5182 14.5333" fill="#00A65E"/>
<path d="M56.9541 29.3312C58.1854 28.9665 60.6482 28.016 61.8796 26.0046C63.1109 23.9931 62.8447 21.3849 62.6117 20.125C61.3804 20.4897 58.9176 21.4402 57.6862 23.4516C56.4548 25.463 56.7211 28.0713 56.9541 29.3312Z" fill="#00A65E"/>
<path d="M29.8859 28.0277C30.8732 28.6245 32.8811 29.6191 34.8558 29.2655C36.8304 28.9118 38.3613 27.2983 39.0824 26.392C38.0951 25.7952 36.0872 24.8005 34.1125 25.1542C32.1379 25.5079 30.607 27.1214 29.8859 28.0277Z" fill="#00A65E"/>
<path d="M57.8082 10.0352C57.5753 11.1735 57.3201 13.406 58.3296 15.1522C59.3391 16.8983 61.4136 17.7935 62.523 18.1583C62.7559 17.0199 63.0111 14.7874 62.0016 13.0413C60.9921 11.2951 58.9176 10.3999 57.8082 10.0352Z" fill="#00A65E"/>
<path d="M49.6767 17.23C50.2869 16.0807 51.3518 13.5829 50.7417 11.2399C50.1426 8.89696 48.0016 7.22813 46.9144 6.50977C46.3043 7.65916 45.2393 10.1569 45.8495 12.4999C46.4485 14.8428 48.5896 16.5117 49.6767 17.23Z" fill="#00A65E"/>
<path d="M79.1854 34.5039C78.5087 33.6529 77.3661 33.2771 76.6228 33.1113C76.6228 33.8739 76.7227 35.0565 77.4105 35.9185C78.0872 36.7695 79.2298 37.1452 79.9731 37.311C79.9731 36.5484 79.8732 35.3659 79.1854 34.5039Z" fill="#00A65E"/>
<path d="M75.0919 22.0146C75.7575 22.8435 77.1109 24.236 78.8415 24.5566C80.5721 24.866 82.336 24.0371 83.2456 23.4956C82.58 22.6667 81.2266 21.2742 79.496 20.9537C77.7655 20.6332 76.0016 21.4731 75.0919 22.0146Z" fill="#00A65E"/>
<path d="M68.5467 9.50443C69.9556 8.90763 70.8542 7.48194 71.2868 6.6199C70.3661 6.33255 68.7131 5.98994 67.3043 6.58674C65.8954 7.18354 64.9968 8.60923 64.5642 9.47127C65.496 9.75862 67.1379 10.1012 68.5467 9.50443Z" fill="#00A65E"/>
<path d="M73.7718 30.2268C73.2393 29.1437 72.0079 27.0991 70.0222 26.2813C68.0365 25.4745 65.7179 26.0713 64.5753 26.4691C65.1078 27.5522 66.3392 29.5968 68.3249 30.4146C70.3106 31.2325 72.6292 30.6246 73.7718 30.2268Z" fill="#00A65E"/>
<path d="M41.8114 32.3152C40.7353 31.0774 38.9271 30.6795 37.9176 30.5469C37.8954 31.5636 38.0396 33.3982 39.1157 34.6361C40.1918 35.8739 42 36.2717 43.0095 36.4043C43.0317 35.3876 42.8875 33.553 41.8114 32.3152Z" fill="#00A65E"/>
<path d="M36.1759 15.0083C36.5642 15.9477 37.4073 17.5834 38.8938 18.3017C40.3803 19.0201 42.1997 18.6775 43.1759 18.4012C42.7876 17.4618 41.9445 15.8261 40.458 15.1078C38.9715 14.3894 37.1521 14.732 36.1759 15.0083Z" fill="#00A65E"/>
<path d="M51.496 35.4979C50.9968 37.3104 51.7401 39.2666 52.2282 40.2612C53.1601 39.6534 54.8019 38.3493 55.3011 36.5368C55.8003 34.7243 55.0571 32.7681 54.5689 31.7734C53.6371 32.3813 51.9952 33.6854 51.496 35.4979Z" fill="#00A65E"/>
<path d="M85.2425 31.741C86.5182 32.5478 88.1823 32.4704 89.1141 32.3378C88.8368 31.4315 88.2045 29.8953 86.9287 29.0885C85.6529 28.2818 83.9889 28.3591 83.0571 28.4917C83.3344 29.398 83.9667 30.9231 85.2425 31.741Z" fill="#00A65E"/>
<path d="M55.6894 9.64796C56.3217 8.81907 57.309 7.20551 57.1981 5.50353C57.0761 3.80154 55.878 2.3427 55.1347 1.61328C54.5024 2.44217 53.5151 4.05574 53.626 5.75772C53.748 7.4597 54.9461 8.91854 55.6894 9.64796Z" fill="#00A65E"/>
</g>
<defs>
<clipPath id="clip0_14999_12744">
<rect width="119" height="116" fill="white"/>
</clipPath>
</defs>
</svg>
