<svg width="220" height="207" viewBox="0 0 220 207" fill="none" xmlns="http://www.w3.org/2000/svg">
<path d="M147.4 121.6C147.4 121.1 147.4 121 147.4 118.4V112.9C147.4 102.6 147.4 81.1999 147.4 72.0999C147.4 67.1999 143.9 65.0999 141.5 64.8999H141.4H129.7C130.7 64.1999 131.4 63.0999 131.8 61.8999C134.1 60.7999 135.7 58.4999 135.7 55.7999C135.7 52.0999 132.7 49.0999 129 49.0999C128.9 49.0999 128.9 49.0999 128.8 49.0999C127.6 47.6999 125.8 46.8999 123.8 46.8999C123.5 46.8999 123.2 46.8999 122.9 46.9999C121.7 45.9999 120.2 45.4999 118.6 45.4999C118.1 45.4999 117.5 45.5999 117 45.6999C116 45.0999 114.8 44.7999 113.6 44.7999C113.1 44.7999 112.6 44.8999 112.1 44.9999C111 44.2999 109.8 43.8999 108.4 43.8999C107.1 43.8999 105.8 44.2999 104.7 44.9999C104.2 44.8999 103.7 44.7999 103.2 44.7999C102 44.7999 100.8 45.0999 99.7999 45.6999C99.2999 45.5999 98.7999 45.4999 98.1999 45.4999C96.5999 45.4999 95.0999 46.0999 93.8999 46.9999C93.5999 46.9999 93.2999 46.8999 92.9999 46.8999C91.0999 46.8999 89.2999 47.6999 87.9999 49.0999C87.8999 49.0999 87.8999 49.0999 87.7999 49.0999C84.0999 49.0999 81.0999 52.0999 81.0999 55.7999C81.0999 58.4999 82.6999 60.7999 84.9999 61.8999C85.3999 63.0999 86.0999 64.0999 87.0999 64.8999H77.0999C76.6999 64.8999 74.4999 64.9999 72.7999 66.6999C71.8999 67.5999 70.8999 69.1999 70.8999 71.9999C70.9999 75.9999 70.9999 117.6 70.9999 124.4V125.1C70.9999 131.1 73.5999 137.2 78.3999 142.8C86.8999 152.2 96.9999 157.7 105.8 162L108.6 163.4L111.4 162C116.7 159.3 121 157 124.6 154.9L125.3 154.4C126.2 153.8 127.3 153.2 128.3 152.4C129.4 151.8 130.3 151.1 131.1 150.4C131.6 150 132.1 149.6 132.5 149.3L132.7 149.2C137.2 145.9 141.3 141.3 144 136.2L144.1 136C145.5 133 147.2 129.3 147.3 125C147.3 124.9 147.3 124.5 147.3 124.5C147.4 122.6 147.4 122 147.4 121.6Z" fill="#002D74"/>
<path d="M147.4 121.6C147.4 121.1 147.4 121 147.4 118.4V112.9C147.4 102.6 147.4 81.1999 147.4 72.0999C147.4 67.1999 143.9 65.0999 141.5 64.8999H141.4H129.7C130.7 64.1999 131.4 63.0999 131.8 61.8999C134.1 60.7999 135.7 58.4999 135.7 55.7999C135.7 52.0999 132.7 49.0999 129 49.0999C128.9 49.0999 128.9 49.0999 128.8 49.0999C127.6 47.6999 125.8 46.8999 123.8 46.8999C123.5 46.8999 123.2 46.8999 122.9 46.9999C121.7 45.9999 120.2 45.4999 118.6 45.4999C118.1 45.4999 117.5 45.5999 117 45.6999C116 45.0999 114.8 44.7999 113.6 44.7999C113.1 44.7999 112.6 44.8999 112.1 44.9999C111 44.2999 109.8 43.8999 108.4 43.8999C107.1 43.8999 105.8 44.2999 104.7 44.9999C104.2 44.8999 103.7 44.7999 103.2 44.7999C102 44.7999 100.8 45.0999 99.7999 45.6999C99.2999 45.5999 98.7999 45.4999 98.1999 45.4999C96.5999 45.4999 95.0999 46.0999 93.8999 46.9999C93.5999 46.9999 93.2999 46.8999 92.9999 46.8999C91.0999 46.8999 89.2999 47.6999 87.9999 49.0999C87.8999 49.0999 87.8999 49.0999 87.7999 49.0999C84.0999 49.0999 81.0999 52.0999 81.0999 55.7999C81.0999 58.4999 82.6999 60.7999 84.9999 61.8999C85.3999 63.0999 86.0999 64.0999 87.0999 64.8999H77.0999C76.6999 64.8999 74.4999 64.9999 72.7999 66.6999C71.8999 67.5999 70.8999 69.1999 70.8999 71.9999C70.9999 75.9999 70.9999 117.6 70.9999 124.4V125.1C70.9999 131.1 73.5999 137.2 78.3999 142.8C86.8999 152.2 96.9999 157.7 105.8 162L108.6 163.4L111.4 162C116.7 159.3 121 157 124.6 154.9L125.3 154.4C126.2 153.8 127.3 153.2 128.3 152.4C129.4 151.8 130.3 151.1 131.1 150.4C131.6 150 132.1 149.6 132.5 149.3L132.7 149.2C137.2 145.9 141.3 141.3 144 136.2L144.1 136C145.5 133 147.2 129.3 147.3 125C147.3 124.9 147.3 124.5 147.3 124.5C147.4 122.6 147.4 122 147.4 121.6ZM144.5 125C144.4 128.7 142.9 132 141.5 134.9C139.2 139.1 135.7 143.5 131 146.9C129.8 147.6 128.4 149 126.7 150C125.5 150.9 124 151.8 123.1 152.4C119.1 154.8 114.6 157.2 110.2 159.4L108.7 160.1L108 159.7L107.5 159.5L107.2 159.4C97.5999 154.6 88.4999 149.5 80.6999 140.8C77.0999 136.6 74.0999 131.2 74.0999 125.1C74.0999 124.9 74.0999 124.8 74.0999 124.4C74.0999 117.5 73.9999 76.0999 73.9999 71.9999C73.8999 67.8999 77.1999 67.8999 77.1999 67.8999H93.5999L89.9999 62.9999C88.7999 62.5999 87.9999 61.4999 87.9999 60.1999V60.0999L87.5999 59.5999C85.7999 59.3999 84.2999 57.7999 84.2999 55.8999C84.2999 53.7999 85.9999 52.0999 88.0999 52.0999C88.6999 52.0999 89.1999 52.1999 89.6999 52.3999C90.1999 50.8999 91.5999 49.7999 93.2999 49.7999C93.9999 49.7999 94.5999 49.9999 95.0999 50.2999C95.6999 49.0999 96.9999 48.2999 98.3999 48.2999C99.1999 48.2999 99.8999 48.4999 100.5 48.8999C101.2 48.0999 102.2 47.4999 103.4 47.4999C104.2 47.4999 104.9 47.6999 105.5 48.0999C106.2 47.1999 107.3 46.4999 108.6 46.4999C109.9 46.4999 111 47.0999 111.7 48.0999C112.3 47.6999 113 47.4999 113.8 47.4999C115 47.4999 116 47.9999 116.7 48.8999C117.3 48.4999 118 48.2999 118.8 48.2999C120.2 48.2999 121.5 49.0999 122.1 50.2999C122.6 49.9999 123.3 49.7999 123.9 49.7999C125.6 49.7999 127 50.8999 127.5 52.3999C128 52.1999 128.5 52.0999 129.1 52.0999C131.2 52.0999 132.9 53.7999 132.9 55.8999C132.9 57.7999 131.5 59.3999 129.6 59.5999L129.2 60.0999V60.1999C129.2 61.4999 128.4 62.5999 127.2 62.9999L123.8 67.8999H141.4C141.4 67.8999 144.6 68.1999 144.6 72.1999C144.6 83.7999 144.6 115.5 144.6 118.5C144.6 123.2 144.6 120.1 144.7 124.8C144.5 124.8 144.5 124.9 144.5 125Z" fill="white"/>
<path d="M128.9 53.9001C127.8 53.9001 127 54.8001 127 55.8001C127 56.3001 127.2 56.8001 127.6 57.2001L126.3 59.1001H126.2C125.6 59.1001 125.1 59.6001 125.1 60.2001C125.1 60.4001 125.1 60.5001 125.2 60.7001L124.3 62.0001C123.8 61.9001 122.9 61.6001 121.6 61.3001L122.2 59.7001C122.7 59.6001 123.1 59.2001 123.1 58.6001C123.1 58.4001 123 58.1001 122.9 57.9001L123.8 55.5001C123.9 55.5001 123.9 55.5001 124 55.5001C125.1 55.5001 125.9 54.6001 125.9 53.6001C125.9 52.5001 125 51.7001 124 51.7001C122.9 51.7001 122.1 52.6001 122.1 53.6001C122.1 54.2001 122.4 54.8001 122.9 55.1001L122 57.5001C121.4 57.6001 121 58.0001 121 58.6001C121 58.9001 121.1 59.2001 121.3 59.4001L120.7 61.1001C119.7 60.9001 118.5 60.7001 117.2 60.4001L117.7 58.6001C118.2 58.5001 118.6 58.1001 118.6 57.5001C118.6 57.2001 118.5 56.9001 118.2 56.7001L118.9 54.0001C120 54.0001 120.8 53.1001 120.8 52.1001C120.8 51.0001 119.9 50.2001 118.9 50.2001C117.8 50.2001 117 51.1001 117 52.1001C117 52.8001 117.4 53.4001 117.9 53.7001L117.2 56.5001C116.7 56.6001 116.4 57.0001 116.4 57.5001C116.4 57.8001 116.5 58.1001 116.7 58.3001L116.2 60.2001C115.2 60.1001 114.1 59.9001 113.1 59.8001L113.4 57.8001C113.8 57.6001 114.1 57.2001 114.1 56.8001C114.1 56.5001 114 56.2001 113.7 56.0001L114.2 53.2001C115.2 53.1001 115.9 52.3001 115.9 51.3001C115.9 50.2001 115 49.4001 114 49.4001C112.9 49.4001 112.1 50.3001 112.1 51.3001C112.1 52.1001 112.6 52.7001 113.2 53.0001L112.7 55.7001C112.2 55.8001 111.9 56.2001 111.9 56.7001C111.9 57.1001 112.1 57.4001 112.4 57.6001L112 59.6001C111.1 59.5001 110.2 59.5001 109.4 59.5001V57.2001C109.7 57.0001 110 56.7001 110 56.3001C110 55.9001 109.8 55.5001 109.4 55.4001V52.3001C110.2 52.1001 110.8 51.3001 110.8 50.5001C110.8 49.4001 109.9 48.6001 108.9 48.6001C107.8 48.6001 107 49.5001 107 50.5001C107 51.4001 107.6 52.1001 108.4 52.3001V55.4001C108.1 55.6001 107.8 55.9001 107.8 56.3001C107.8 56.7001 108 57.1001 108.4 57.2001V59.5001C107.5 59.5001 106.6 59.6001 105.8 59.6001L105.4 57.6001C105.7 57.4001 105.9 57.1001 105.9 56.7001C105.9 56.2001 105.6 55.8001 105.1 55.7001L104.6 53.0001C105.3 52.7001 105.7 52.0001 105.7 51.3001C105.7 50.2001 104.8 49.4001 103.8 49.4001C102.7 49.4001 101.9 50.3001 101.9 51.3001C101.9 52.3001 102.6 53.1001 103.6 53.2001L104.1 56.0001C103.9 56.2001 103.7 56.5001 103.7 56.8001C103.7 57.3001 104 57.7001 104.4 57.8001L104.7 59.8001C103.6 59.9001 102.6 60.0001 101.6 60.2001L101.1 58.4001C101.3 58.2001 101.5 57.9001 101.5 57.6001C101.5 57.1001 101.1 56.6001 100.6 56.5001L99.8999 53.7001C100.4 53.4001 100.8 52.8001 100.8 52.1001C100.8 51.0001 99.8999 50.2001 98.8999 50.2001C97.7999 50.2001 96.9999 51.1001 96.9999 52.1001C96.9999 53.2001 97.8999 54.0001 98.8999 54.0001L99.6999 56.8001C99.4999 57.0001 99.3999 57.2001 99.3999 57.5001C99.3999 58.0001 99.6999 58.4001 100.2 58.5001L100.7 60.3001C99.3999 60.5001 98.1999 60.7001 97.1999 61.0001L95.9999 59.4001C96.1999 59.2001 96.2999 59.0001 96.2999 58.7001C96.2999 58.1001 95.8999 57.7001 95.2999 57.6001L94.3999 55.2001C94.8999 54.8001 95.1999 54.3001 95.1999 53.7001C95.1999 52.6001 94.2999 51.8001 93.2999 51.8001C92.1999 51.8001 91.3999 52.7001 91.3999 53.7001C91.3999 54.8001 92.2999 55.6001 93.2999 55.6001C93.3999 55.6001 93.3999 55.6001 93.4999 55.6001L94.3999 58.0001C94.1999 58.2001 94.0999 58.4001 94.0999 58.7001C94.0999 59.2001 94.4999 59.7001 94.9999 59.8001L95.5999 61.4001C94.2999 61.7001 93.3999 61.9001 92.8999 62.1001L91.9999 60.8001C92.0999 60.7001 92.0999 60.5001 92.0999 60.3001C92.0999 59.7001 91.5999 59.2001 90.9999 59.2001H90.8999L89.5999 57.3001C89.8999 57.0001 90.1999 56.5001 90.1999 55.9001C90.1999 54.8001 89.2999 54.0001 88.2999 54.0001C87.1999 54.0001 86.3999 54.9001 86.3999 55.9001C86.3999 57.0001 87.2999 57.8001 88.2999 57.8001C88.4999 57.8001 88.5999 57.8001 88.6999 57.7001L90.0999 59.7001C89.9999 59.9001 89.9999 60.0001 89.9999 60.2001C89.9999 60.8001 90.4999 61.3001 91.0999 61.3001H91.1999L95.7999 67.8001L121.6 67.9001L126.2 61.3001H126.3C126.9 61.3001 127.4 60.8001 127.4 60.2001C127.4 60.0001 127.3 59.9001 127.3 59.7001L128.7 57.7001C128.8 57.7001 129 57.8001 129.1 57.8001C130.2 57.8001 131 56.9001 131 55.9001C130.9 54.8001 130 53.9001 128.9 53.9001ZM121.5 65.6001C121.5 65.6001 116.5 63.9001 108.5 63.9001C100.5 63.9001 95.4999 65.6001 95.4999 65.6001L93.9999 63.5001C93.9999 63.5001 99.8999 61.4001 108.5 61.4001C117 61.4001 123 63.5001 123 63.5001L121.5 65.6001Z" fill="#FFC72A"/>
<path d="M113.7 113.1H103.5L103.6 112.2C103.8 109.3 104.6 92.2999 104.6 92.0999C104.6 91.8999 104.6 91.6999 104.5 91.4999C104.4 91.3999 104.1 91.3999 103.9 91.3999C103.2 91.3999 95 92.1999 92.6 92.5999L91.7 92.6999V82.5999L92.6 82.6999C95 83.0999 103.2 83.7999 103.9 83.7999C104.2 83.7999 104.3 83.7999 104.4 83.6999C104.6 83.4999 104.6 83.1999 104.6 83.0999C104.6 82.9999 103.9 74.3999 103.6 72.8999L103.4 71.8999H113.7L113.5 72.8999C113.2 74.5999 112.5 82.9999 112.5 83.0999C112.5 83.1999 112.5 83.4999 112.7 83.6999C112.8 83.7999 113 83.7999 113.2 83.7999C113.9 83.7999 122.1 82.9999 124.5 82.6999L125.4 82.5999V92.6999L124.5 92.5999C122.1 92.1999 113.8 91.4999 113.2 91.3999C113 91.3999 112.8 91.3999 112.6 91.4999C112.5 91.5999 112.5 91.8999 112.5 91.9999C112.5 92.1999 113.3 109.2 113.5 112.1L113.7 113.1ZM105.3 111.4H111.9C111.6 107 111 92.7999 111 92.1999C111 92.1999 110.9 91.1999 111.5 90.4999C111.8 90.1999 112.4 89.7999 113.3 89.7999C113.9 89.7999 120.7 90.4999 123.9 90.7999V84.4999C120.7 84.8999 114 85.4999 113.4 85.4999C112.5 85.5999 111.9 85.1999 111.6 84.8999C110.9 84.1999 111 83.1999 111 83.0999C111 82.7999 111.5 76.4999 111.9 73.6999H105.4C105.7 76.3999 106.3 82.7999 106.3 83.0999C106.3 83.1999 106.4 84.1999 105.7 84.8999C105.4 85.1999 104.8 85.5999 103.9 85.4999C103.2 85.4999 96.5 84.8999 93.4 84.4999V90.7999C96.6 90.3999 103.3 89.7999 104 89.7999C105 89.7999 105.5 90.1999 105.8 90.4999C106.5 91.1999 106.3 92.1999 106.3 92.2999C106.2 92.7999 105.6 107 105.3 111.4Z" fill="white"/>
<path d="M113.7 113.1H103.5L103.6 112.2C103.8 109.3 104.6 92.2999 104.6 92.0999C104.6 91.8999 104.6 91.6999 104.5 91.4999C104.4 91.3999 104.1 91.3999 103.9 91.3999C103.2 91.3999 95.0002 92.1999 92.6002 92.5999L91.7002 92.6999V82.5999L92.6002 82.6999C95.0002 83.0999 103.2 83.7999 103.9 83.7999C104.2 83.7999 104.3 83.7999 104.4 83.6999C104.6 83.4999 104.6 83.1999 104.6 83.0999C104.6 82.9999 103.9 74.3999 103.6 72.8999L103.4 71.8999H113.7L113.5 72.8999C113.2 74.5999 112.5 82.9999 112.5 83.0999C112.5 83.1999 112.5 83.4999 112.7 83.6999C112.8 83.7999 113 83.7999 113.2 83.7999C113.9 83.7999 122.1 82.9999 124.5 82.6999L125.4 82.5999V92.6999L124.5 92.5999C122.1 92.1999 113.8 91.4999 113.2 91.3999C113 91.3999 112.8 91.3999 112.6 91.4999C112.5 91.5999 112.5 91.8999 112.5 91.9999C112.5 92.1999 113.3 109.2 113.5 112.1L113.7 113.1Z" fill="#FFC72A"/>
<path d="M140.4 107.7V100.4H132.7L132.6 140.3C134.8 138 136.6 135.5 137.9 133.1C139.2 130.4 140.4 127.5 140.4 124.8V124.7C140.3 120.1 140.3 123.1 140.3 118.4C140.4 114.7 140.4 111.1 140.4 107.7Z" fill="#FFC72A"/>
<path d="M118.4 150.5C119.3 150 120.1 149.5 120.9 149C121.9 148.4 123.3 147.5 124.3 146.7C124.9 146.3 125.6 145.9 126.2 145.4V100.3H118.4V150.5Z" fill="#FFC72A"/>
<path d="M104.8 154.1C106.1 154.6 107.3 155.1 108.6 155.6C109.9 155.1 111.2 154.6 112.6 154V117.3H104.8V154.1Z" fill="#FFC72A"/>
<path d="M91.2 145.1C93.7 147.1 96.3 148.8 99 150.4V100.3H91.2V145.1Z" fill="#FFC72A"/>
<path d="M77.8999 100.3C77.8999 115.8 77.9999 124 77.9999 124.9V125.1C77.9999 129.9 80.3999 134.5 83.5999 138.2C84.1999 138.9 84.8999 139.5 85.4999 140.2V100.3L84.0999 100.2H77.8999V100.3Z" fill="#FFC72A"/>
<path d="M110 89.2L108.5 109.6L107 89.2L95 87.7L107 86.2L108.5 75.7L110 86.3L122.1 87.7L110 89.2Z" fill="white"/>
<path d="M1.50005 197.9C3.30005 197.9 3.70005 197.4 4.20005 194.5L5.90005 185.1C6.40005 182.2 6.20005 181.7 4.30005 181.7L4.40005 181.1H10.5L10.4 181.7C8.60005 181.7 8.30005 182.2 7.70005 185.1L6.10005 194.1C5.60005 197 5.80005 197.5 7.60005 197.5H10.1C12.1 197.5 12.4 196.9 13 195.3L13.2 194.7H13.7L12.8 198.5H1.30005L1.50005 197.9Z" fill="white"/>
<path d="M17.5 197.9C17.8 197.9 18.5 197.5 18.7 197.3V198C18.1 198.6 17.3 199 16.8 199C15.8 199 15.4 198.1 15.6 197L16.7 190.9C16.8 190.2 16.8 189.7 16.4 189.7C16.1 189.7 15.4 190.1 15.2 190.4V189.7C15.8 189.1 16.6 188.7 17.1 188.7C18.1 188.7 18.5 189.5 18.3 190.7L17.2 196.9C17.1 197.4 17.2 197.9 17.5 197.9ZM19.6 184.3C19.5 184.9 19 185.3 18.5 185.3C18 185.3 17.5 184.8 17.6 184.3C17.7 183.8 18.2 183.3 18.7 183.3C19.3 183.3 19.7 183.7 19.6 184.3Z" fill="white"/>
<path d="M24.9 188.4C24.6 190.4 23.6 192 23 195.2C22.7 197.1 23.4 198 24.3 198C25.6 198 27.1 196.3 27.6 193.7C28.2 190.1 26.8 189.9 26.9 189C27 188.6 27.3 188.4 27.6 188.4C28.3 188.4 29.2 189.8 28.5 193.7C28 196.6 26 199 24 199C21.5 199 21 197.2 21.3 195.4C21.6 193.5 23.2 191.3 23.4 190.1C22.7 189.8 22.4 189.5 21.5 189.5C21.2 189.5 20.5 189.9 20.3 190.2V189.5C20.9 188.9 21.7001 188.5 22.2001 188.5C23.2001 188.5 23.4001 188.9 24.2001 188.4H24.9Z" fill="white"/>
<path d="M34.5 197.9C35.2 197.9 36.4 197.3 37.1 196.6L37.4 197.2C36.4 198.3 35 199.1 33.7 199.1C31.3 199.1 30.1 196.7 30.6 193.8C31.2 190.7 33.6 188.5 35.6 188.5C37.1 188.5 38 189.6 37.7 191C37.4 192.5 35.7 194.3 32.1 195.1C32.2 196.7 32.9 197.9 34.5 197.9ZM36.3 190.9C36.4 190.2 36.2 189.5 35.5 189.5C34.2 189.5 32.9 191.1 32.4 193.7L32.3 194.2C34.8 193.6 36.1 192.1 36.3 190.9Z" fill="white"/>
<path d="M52.5 199H52.2L50.0999 184.4L47.5999 194.6C46.9999 196.9 47.2999 198 49.0999 198L49 198.6H43.7L43.7999 198C45.5999 198 45.9 197 46.5 194.6L48.9 185.2C49.5 182.7 49.1999 181.8 47.2999 181.8L47.4 181.2H51.4L53.4 195L60.2999 181.2H64.1999L64.0999 181.8C62.2999 181.8 61.7 182.7 61.4 185.2L60.4 194.6C60.2 196.9 60.1 198 61.9 198L61.7999 198.6H55.7999L55.9 198C57.7 198 58.2999 196.9 58.5999 194.6L59.7 184.5L52.5 199Z" fill="white"/>
<path d="M68.6001 197.9C69.3001 197.9 70.5001 197.3 71.2001 196.6L71.5001 197.2C70.5001 198.3 69.1001 199.1 67.8001 199.1C65.4001 199.1 64.2001 196.7 64.7001 193.8C65.2001 190.7 67.7001 188.5 69.7001 188.5C71.2001 188.5 72.1001 189.6 71.8001 191C71.5001 192.5 69.8001 194.3 66.2001 195.1C66.3001 196.7 67.0001 197.9 68.6001 197.9ZM70.3001 190.9C70.4001 190.2 70.2001 189.5 69.5001 189.5C68.2001 189.5 66.9001 191.1 66.4001 193.7L66.3001 194.2C68.9001 193.6 70.1001 192.1 70.3001 190.9Z" fill="white"/>
<path d="M79.9 188.4C81.2 188.4 81.5 189.4 81.4 190C81.3 190.4 81 191.2 80.2 191.2C79.7 191.2 79.3 190.8 79.4 190.3C79.5 189.9 79.4 189.7 79.1 189.7C78.3 189.7 76.8 191.6 76.1 195.7L75.6 198.5H74.1L75.5 190.7C75.6 190 75.6 189.5 75.2 189.5C74.9 189.5 74.2 189.9 74 190.2V189.5C74.6 188.9 75.4 188.5 75.9 188.5C76.9 188.5 77.3 189.3 77.1 190.5L77 191.2C77.7 189.4 78.8 188.4 79.9 188.4Z" fill="white"/>
<path d="M84.9001 199C82.5001 199 81.4001 196.8 81.9001 193.9C82.5001 190.5 85.0001 188.3 86.8001 188.3C88.7001 188.3 89.2001 189.5 89.1001 190.2C89.0001 190.7 88.8001 191.2 88.1001 191.2C86.9001 191.2 87.8001 189.3 86.6001 189.3C85.6001 189.3 84.2001 190.8 83.6001 193.9C83.2001 196.2 83.8001 197.8 85.6001 197.8C86.3001 197.8 87.3001 197.4 88.1001 196.5L88.4001 197.1C87.5001 198.3 86.2001 199 84.9001 199Z" fill="white"/>
<path d="M96.3 192.7C96.8 189.5 95.2 189.5 95.4 188.8C95.5 188.5 95.8 188.2 96.1 188.2C96.9 188.2 97.9 189.3 97.3 192.2C96.1 199.2 88.6 206.2 83.9 206.2C82.2 206.2 81.6 205.4 81.7 204.7C81.8 204.3 82.2 203.7 82.6 203.7C83.1 203.7 83 204.9 84.7 204.9C86.8 204.9 89.6 203 91.9 200.4C93 192.6 91.8 189.4 90.6 189.4C90.2 189.4 89.5 189.9 89.3 190.1V189.4C89.8 188.8 90.6 188.4 91.4 188.4C93.6 188.4 94.5 192.3 93.7 198.1C95 196.4 96 194.5 96.3 192.7Z" fill="white"/>
<path d="M102.8 197.4C102.7 198.2 102 198.8 101.3 198.8C100.5 198.8 100 198.2 100.1 197.4C100.2 196.6 100.9 196 101.6 196C102.3 196 102.9 196.6 102.8 197.4Z" fill="white"/>
<path d="M111.8 199H111.2L112.3 192.6H112.9C112.6 195.4 113.6 197.8 116.5 197.8C118.1 197.8 119.7 196.6 119.7 194.3C119.7 192.7 118.4 191.5 116.4 190C114.6 188.7 113.9 187.2 113.9 185.6C113.9 182.6 116.3 180.6 118.4 180.6C119.8 180.6 120.6 181.1 121.2 181.8C121.5 181.5 121.8 181.1 122.1 180.5H122.7L121.6 186.9H121C121.3 184.6 121 181.8 118.5 181.8C117.2 181.8 115.7 183 115.7 184.8C115.7 186.1 116.4 187.1 118.2 188.4C120.5 190 121.5 191.6 121.5 193.4C121.5 197.3 118.9 199.1 116.4 199.1C114.5 199.1 113.4 198 112.9 197.6C112.6 197.8 112.1 198.4 111.8 199Z" fill="white"/>
<path d="M127.6 197.9C128.3 197.9 129.5 197.3 130.2 196.6L130.5 197.2C129.5 198.3 128.1 199.1 126.8 199.1C124.4 199.1 123.2 196.7 123.7 193.8C124.3 190.7 126.7 188.5 128.7 188.5C130.2 188.5 131.1 189.6 130.8 191C130.5 192.5 128.8 194.3 125.2 195.1C125.3 196.7 126 197.9 127.6 197.9ZM129.4 190.9C129.5 190.2 129.3 189.5 128.6 189.5C127.3 189.5 126 191.1 125.5 193.7L125.4 194.2C127.9 193.6 129.2 192.1 129.4 190.9Z" fill="white"/>
<path d="M136.7 197.9C137.4 197.9 138.6 197.3 139.3 196.6L139.6 197.2C138.6 198.3 137.2 199.1 135.9 199.1C133.5 199.1 132.3 196.7 132.8 193.8C133.4 190.7 135.8 188.5 137.8 188.5C139.3 188.5 140.2 189.6 139.9 191C139.6 192.5 137.9 194.3 134.3 195.1C134.3 196.7 135.1 197.9 136.7 197.9ZM138.4 190.9C138.5 190.2 138.3 189.5 137.6 189.5C136.3 189.5 135 191.1 134.5 193.7L134.4 194.2C137 193.6 138.2 192.1 138.4 190.9Z" fill="white"/>
<path d="M143.4 198.5H141.8L144.1 185.4C144.6 182.5 144.4 182 143 182L143.1 181.4L146.6 180.7L144.5 192.3C146.2 190 147.5 188.5 149.1 188.5C150.4 188.5 150.9 189.5 150.7 190.3C150.6 190.8 150.3 191.1 149.8 191.1C148.7 191.1 149.5 189.7 148.4 189.7C147.7 189.7 146.9 190.3 145.2 192.3C145.4 192.2 145.7 192.2 145.9 192.2C147.1 192.2 147.5 192.6 147.7 193.9L148.1 196.7C148.2 197.6 148.4 197.9 148.8 197.9C149.1 197.9 149.8 197.5 150 197.3V198C149.4 198.6 148.6 199 148.1 199C147.1 199 146.5 198.2 146.5 197L146.4 194.2C146.4 193.4 146.3 193 145.6 193C145.3 193 144.8 193.2 144.3 193.6L143.4 198.5Z" fill="white"/>
<path d="M159.2 181.8L159.3 181.2H165.4L165.3 181.8C163.5 181.8 163.2 182.3 162.6 185.2L159.9 200.2C159.3 203.6 157.4 205.1 155.5 205.1C153.6 205.1 152.8 203.8 152.9 203C153 202.6 153.2 202.2 153.8 202.2C155.1 202.2 154.1 204.2 155.8 204.2C156.8 204.2 157.5 203.4 158.1 200.2L160.8 185.2C161.3 182.3 161 181.8 159.2 181.8Z" fill="white"/>
<path d="M171.6 198.9C170.6 198.9 170.2 198.1 170.4 196.9V196.7C169.6 198.1 168.3 199.1 167.1 199.1C165.1 199.1 164.6 197.2 165 194.8L165.7 190.9C165.8 190.2 165.8 189.7 165.4 189.7C165.1 189.7 164.4 190.1 164.2 190.4V189.7C164.8 189.1 165.6 188.7 166.1 188.7C167.1 188.7 167.5 189.5 167.3 190.7L166.6 194.7C166.3 196.6 166.4 197.8 167.8 197.8C168.7 197.8 170.4 196.4 170.9 193.4L171.7 189.1H173.3L171.9 196.9C171.8 197.6 171.8 198.1 172.2 198.1C172.5 198.1 173.2 197.7 173.4 197.5V198.2C172.9 198.5 172.2 198.9 171.6 198.9Z" fill="white"/>
<path d="M177.1 199C175.3 199 174.5 197.8 174.6 197C174.7 196.6 175 196.3 175.4 196.3C176.5 196.3 175.5 198 177.5 198C178.3 198 178.9 197.2 179.1 196.6C179.2 195.8 178.7 195 178.2 194.6L177.2 193.6C176.5 192.8 176 191.9 176.2 191C176.4 189.7 177.4 188.4 179.4 188.4C181 188.4 181.5 189.4 181.3 190.1C181.2 190.4 181 190.7 180.7 190.7C179.7 190.7 180.5 189.2 179 189.2C178.4 189.2 177.7 189.7 177.6 190.5C177.5 191.3 177.8 191.7 178.5 192.4L179.5 193.4C180.3 194.1 180.6 195.2 180.5 196.1C180 198 178.5 199 177.1 199Z" fill="white"/>
<path d="M184.8 195.7C184.5 197.1 184.8 197.8 185.5 197.8C185.9 197.8 186.5 197.5 187.3 196.5V197.3C186.4 198.4 185.3 198.9 184.7 198.9C183.4 198.9 182.8 197.9 183.2 195.7L184.2 189.9H182.3L182.5 188.9H184.4L185.2 184.3H186.8L186 188.9H188.3L188.1 189.9H185.8L184.8 195.7Z" fill="white"/>
<path d="M191.9 197.9C192.2 197.9 192.9 197.5 193.1 197.3V198C192.5 198.6 191.7 199 191.2 199C190.2 199 189.8 198.1 190 197L191.1 190.9C191.2 190.2 191.2 189.7 190.8 189.7C190.5 189.7 189.8 190.1 189.6 190.4V189.7C190.2 189.1 191 188.7 191.5 188.7C192.5 188.7 192.9 189.5 192.7 190.7L191.6 196.9C191.5 197.4 191.5 197.9 191.9 197.9ZM194 184.3C193.9 184.9 193.4 185.3 192.9 185.3C192.4 185.3 191.9 184.8 192 184.3C192.1 183.8 192.6 183.3 193.1 183.3C193.6 183.3 194 183.7 194 184.3Z" fill="white"/>
<path d="M198.2 199C195.8 199 194.7 196.8 195.2 193.9C195.8 190.5 198.3 188.3 200.1 188.3C202 188.3 202.5 189.5 202.4 190.2C202.3 190.7 202.1 191.2 201.4 191.2C200.2 191.2 201.1 189.3 199.9 189.3C198.9 189.3 197.5 190.8 196.9 193.9C196.5 196.2 197.1 197.8 198.9 197.8C199.6 197.8 200.6 197.4 201.4 196.5L201.7 197.1C200.7 198.3 199.4 199 198.2 199Z" fill="white"/>
<path d="M207.6 197.9C208.3 197.9 209.5 197.3 210.2 196.6L210.5 197.2C209.5 198.3 208.1 199.1 206.8 199.1C204.4 199.1 203.2 196.7 203.7 193.8C204.3 190.7 206.7 188.5 208.7 188.5C210.2 188.5 211.1 189.6 210.8 191C210.5 192.5 208.8 194.3 205.2 195.1C205.2 196.7 206 197.9 207.6 197.9ZM209.3 190.9C209.4 190.2 209.2 189.5 208.5 189.5C207.2 189.5 205.9 191.1 205.4 193.7L205.3 194.2C207.9 193.6 209.1 192.1 209.3 190.9Z" fill="white"/>
<path d="M216.1 197.4C216 198.2 215.3 198.8 214.6 198.8C213.9 198.8 213.3 198.2 213.4 197.4C213.5 196.6 214.2 196 214.9 196C215.6 196 216.2 196.6 216.1 197.4Z" fill="white"/>
<path d="M14.6 136C17.1 135.5 17.4 135.1 17 133.1L17.7001 133L18.8 138.8L18.1 138.9C17.7001 136.9 17.2 136.7 14.8 137.1L7.20005 138.6C4.70005 139.1 4.40005 139.5 4.80005 141.5L4.10005 141.6L3.10005 136.5L12.9 129.9L1.30005 127.6L0.300049 122.7L1.00005 122.6C1.40005 124.7 1.90005 124.9 4.40005 124.4L12 122.9C14.5 122.4 14.8 122 14.4 120L15.1 119.9L16.6 127.5L15.9 127.6C15.5 125.6 15 125.3 12.5 125.8L4.80005 127.3L17.5 129.8L17.6 130.3L6.80005 137.5L14.6 136Z" fill="white"/>
<path d="M14.4 116.2C14.4 114.1 14 113.8 11.5 113.8L3.8 113.7C1.3 113.7 0.9 114 0.8 116H0L0.2 103.2L3.7 103.1V103.8L3.2 103.9C1.9 104.2 1.3 104.5 1.2 106.8L1.1 110.6L6.5 110.7V109.3C6.5 106.8 6.2 106.4 4.1 106.4V105.7L10.1 105.8V106.5C8 106.5 7.7 106.9 7.6 109.4V110.8L10.9 110.9C13.4 110.9 13.8 110.6 13.9 108.6V106.4C13.9 104.1 13.4 103.8 12 103.5L11.5 103.4V102.7L15 103L14.8 116.7L14.4 116.2Z" fill="white"/>
<path d="M14.0999 86.6C16.8999 85 17.6999 84.1 18.1999 82.7L18.8999 82.8L17.7999 88.1L10.3999 91.1L10.2999 91.8L13.1999 92.4C15.6999 92.9 16.0999 92.7 16.5999 90.7L17.2999 90.8L15.6999 98.5L14.9999 98.4C15.3999 96.4 15.0999 96 12.5999 95.5L4.9999 93.9C2.4999 93.4 2.0999 93.6 1.5999 95.6L0.899902 95.5L2.5999 87.3C3.1999 84.3 5.4999 82.8 7.7999 83.2C9.8999 83.6 11.2999 85.7 10.9999 88.4L14.0999 86.6ZM7.0999 86.5C5.3999 86.1 3.7999 86.9 3.3999 89L3.0999 90.3L9.1999 91.6L9.4999 90.3C9.8999 88.1 8.7999 86.8 7.0999 86.5Z" fill="white"/>
<path d="M20.1 80.3001L19.4 80.0001C20.1 78.1001 19.9 77.6001 17.5 76.7001L10.3 74.0001C8 73.1001 7.4 73.2001 6.7 75.1001L6 74.9001L8.8 67.6001L9.5 67.9001C8.8 69.8001 9 70.3001 11.4 71.2001L18.6 74.0001C20.9 74.9001 21.5 74.8001 22.2 72.8001L22.9 73.1001L20.1 80.3001Z" fill="white"/>
<path d="M28.8999 62.4999C26.5999 66.3999 21.4999 67.7999 17.7999 65.5999C13.9999 63.3999 12.8999 58.2999 15.1999 54.3999C17.4999 50.4999 22.4999 49.0999 26.2999 51.3999C30.0999 53.4999 31.1999 58.4999 28.8999 62.4999ZM16.2999 54.8999C14.4999 57.8999 16.9999 61.0999 19.5999 62.5999C22.1999 64.1999 26.0999 64.7999 27.8999 61.7999C29.6999 58.7999 27.1999 55.5999 24.5999 54.0999C21.9999 52.5999 18.0999 51.8999 16.2999 54.8999Z" fill="white"/>
<path d="M35.8 34.6C34 32.9 33.4 32.8 32 34.3L31.5 33.8L35.5 29.5L36 30C34.6 31.5 34.7 32 36.5 33.8L45.1 41.9L44.7 42.4L28.6 41.4L34.7 47.1C36.5 48.8 37.1 48.9 38.5 47.4L39 47.9L35 52.2L34.5 51.7C35.9 50.2 35.8 49.7 34 48L28.3 42.7C26.5 41 25.9 40.9 24.5 42.4L24 41.8L27.4 38.2L40.4 39L35.8 34.6Z" fill="white"/>
<path d="M56.7001 27.7001C57.9001 29.9001 58.4001 30.1001 60.2001 29.1001L60.6001 29.7001L55.5001 32.6001L55.1001 32.0001C56.9001 31.0001 57.0001 30.5001 55.7001 28.3001L52.0001 21.5001C50.8001 19.3001 50.3001 19.1001 48.5001 20.1001L48.1001 19.5001L52.6001 17.0001L61.9001 24.3001L60.6001 12.6001L65.0001 10.1001L65.4001 10.7001C63.6001 11.7001 63.5001 12.2001 64.7001 14.4001L68.5001 21.2001C69.7001 23.4001 70.2001 23.6001 72.0001 22.6001L72.4001 23.2001L65.6001 27.0001L65.2001 26.4001C67.0001 25.4001 67.1001 24.9001 65.9001 22.7001L62.0001 15.7001L63.5001 28.6001L63.0001 28.9001L52.8001 20.8001L56.7001 27.7001Z" fill="white"/>
<path d="M75.4999 21.4C77.4999 20.8 77.5999 20.3 76.8999 17.9L74.6999 10.5C73.9999 8.1 73.5999 7.8 71.5999 8.4L71.3999 7.7L83.5999 4L84.7999 7.3L84.0999 7.5L83.7999 7.1C83.0999 5.9 82.6999 5.4 80.4999 6.1L76.8999 7.2L78.4999 12.4L79.7999 12C82.1999 11.3 82.4999 10.8 81.8999 8.9L82.5999 8.7L84.2999 14.4L83.5999 14.6C82.9999 12.6 82.4999 12.4 80.0999 13.1L78.7999 13.5L79.7999 16.7C80.4999 19.1 80.9999 19.4 82.8999 18.8L84.9999 18.2C87.1999 17.5 87.2999 16.9 87.1999 15.5V15L87.8999 14.8L88.6999 18.3L75.5999 22.3L75.4999 21.4Z" fill="white"/>
<path d="M103.7 12.2001C106.1 14.4001 107.1 14.9001 108.7 14.9001L108.8 15.6001L103.4 16.1001L98.3 10.0001L97.6 10.1001L97.9 13.0001C98.2 15.5001 98.5 15.9001 100.6 15.7001L100.7 16.4001L92.9 17.2001L92.8 16.5001C94.9 16.3001 95.1 15.8001 94.9 13.3001L94.1 5.60009C93.8 3.10009 93.5 2.70009 91.4 2.90009L91.3 2.20009L99.6 1.40009C102.7 1.10009 104.8 2.80009 105 5.10009C105.2 7.30009 103.7 9.20009 101 9.70009L103.7 12.2001ZM101.6 5.50009C101.4 3.80009 100.3 2.50009 98.1 2.70009L96.7 2.80009L97.4 9.00009L98.8 8.90009C100.9 8.70009 101.8 7.20009 101.6 5.50009Z" fill="white"/>
<path d="M124.5 16.6999C124.4 16.0999 124.3 15.4999 124 15.1999C122.6 16.3999 120.9 17.0999 119.2 16.8999C115 16.4999 111.9 12.5999 112.3 8.29994C112.7 3.89994 116.4 0.699939 120.6 0.999939C122.3 1.19994 123.9 2.09994 125 3.49994C125.3 3.29994 125.6 2.69994 125.8 2.09994L126.5 2.19994L126 7.79994L125.3 7.69994C124.9 4.39994 123.1 2.49994 120.6 2.19994C117.2 1.89994 115.9 5.39994 115.6 8.49994C115.3 11.5999 116 15.2999 119.4 15.5999C121.9 15.7999 124 14.1999 125 10.9999L125.7 11.0999L125.2 16.5999L124.5 16.6999Z" fill="white"/>
<path d="M144.6 9.50005L139.7 13.7L138.9 16.6C138.2 19 138.4 19.5 140.4 20.1L140.2 20.8L132.7 18.6L132.9 17.9C134.9 18.5 135.3 18.2 136 15.7L136.8 12.9L134.9 6.60005C134.3 4.60005 133.7 4.00005 132 3.50005L132.2 2.80005L140.3 5.10005L140 5.90005C138.3 5.40005 137.7 5.80005 138.2 7.40005L139.7 12.3L143.6 9.00005C144.8 7.90005 144.7 7.30005 142.8 6.80005L143 6.00005L148.8 7.70005L148.6 8.40005C146.6 7.80005 146 8.20005 144.6 9.50005Z" fill="white"/>
<path d="M156.9 25.4001C155.7 26.3001 155.7 26.9001 157.5 28.0001L157.1 28.6001L152 25.4001L152.4 24.8001C153.9 25.7001 154.6 25.6001 156.2 24.5001L167.4 16.6001L167.8 16.9001L165.8 30.5001C165.6 32.2001 165.5 32.9001 167.2 34.0001L166.8 34.6001L159.9 30.3001L160.3 29.7001C162.2 30.8001 162.7 30.5001 162.9 29.0001L163.3 26.4001L159.1 23.8001L156.9 25.4001ZM164.2 20.2001L160 23.2001L163.4 25.3001L164.2 20.2001Z" fill="white"/>
<path d="M178.1 44.4C178.4 43.9 178.7 43.3 178.6 42.9C176.8 43 175 42.5 173.7 41.4C170.6 38.6 170.4 33.6 173.4 30.4C176.3 27.2 181.3 26.8 184.4 29.6C185.7 30.8 186.4 32.4 186.4 34.3C186.8 34.3 187.3 34 187.8 33.7L188.3 34.2L184.6 38.3L184.1 37.8C185.8 34.9 185.5 32.3 183.6 30.6C181.1 28.3 177.9 30.4 175.8 32.7C173.7 35 172 38.4 174.5 40.7C176.3 42.4 179 42.4 181.7 40.4L182.2 40.9L178.5 45L178.1 44.4Z" fill="white"/>
<path d="M185 48.6C183.6 49 183.4 49.6001 184.6 51.2001L184 51.6L180.4 46.8L181 46.4001C182 47.8001 182.7 48 184.6 47.5L197.9 44.3L198.2 44.7001L191.4 56.6C190.5 58.1 190.3 58.8001 191.5 60.4001L190.9 60.8L186 54.3L186.6 53.9001C187.9 55.7001 188.5 55.5001 189.3 54.2001L190.6 51.9001L187.6 47.9001L185 48.6ZM193.7 46.5L188.7 47.7001L191.1 50.9001L193.7 46.5Z" fill="white"/>
<path d="M192.4 61.9999C193.3 63.8999 193.8 63.9999 196.1 62.8999L203.1 59.5999C205.4 58.4999 205.6 58.0999 204.7 56.1999L205.4 55.8999L208.9 63.2999C211.4 68.4999 209.4 72.2999 205.6 73.9999C201.9 75.7999 197.7 74.9999 195.2 69.6999L191.7 62.2999L192.4 61.9999ZM197.7 65.5999C195.5 66.5999 195.3 67.0999 196.2 68.9999L196.4 69.3999C198.1 72.9999 201.7 72.2999 204.3 70.9999C206.9 69.7999 209.7 67.4999 208 63.8999L206.8 61.3999L197.7 65.5999Z" fill="white"/>
<path d="M200.8 80.6001C201.3 82.6001 201.8 82.8001 204.2 82.2001L211.7 80.3001C214.1 79.7001 214.5 79.3001 214 77.3001L214.7 77.1001L217.8 89.5001L214.4 90.6001L214.2 89.9001L214.7 89.7001C215.9 89.0001 216.4 88.7001 215.8 86.4001L214.9 82.7001L209.7 84.0001L210 85.3001C210.6 87.7001 211 88.0001 213 87.5001L213.2 88.2001L207.4 89.7001L207.2 89.0001C209.2 88.5001 209.4 88.0001 208.8 85.6001L208.5 84.3001L205.3 85.1001C202.9 85.7001 202.5 86.1001 203 88.1001L203.5 90.3001C204.1 92.5001 204.7 92.6001 206.1 92.6001H206.6L206.8 93.3001L203.3 94.0001L200 80.8001L200.8 80.6001Z" fill="white"/>
<path d="M208 101.3C205.5 101.4 205.1 101.7 205.1 103.8H204.4L204.2 97.8999H204.9C205 99.9999 205.4 100.3 207.9 100.2L215.6 99.8999C218.1 99.7999 218.5 99.4999 218.5 97.3999H219.2L219.4 102.6L208.6 107.5L219.7 111.7L219.9 116.7H219.2C219.1 114.6 218.7 114.3 216.2 114.4L208.5 114.7C206 114.8 205.6 115.1 205.6 117.2H204.9L204.6 109.5H205.3C205.4 111.6 205.8 111.9 208.3 111.8L216.2 111.5L204 106.9V106.4L215.8 101L208 101.3Z" fill="white"/>
<path d="M214.2 134.7L209.5 130.2L206.5 129.7C204 129.3 203.6 129.5 203.2 131.5L202.5 131.4L203.9 123.7L204.6 123.8C204.2 125.8 204.6 126.2 207.1 126.7L210 127.2L216.1 124.6C218.1 123.8 218.6 123.2 218.9 121.4L219.6 121.5L218 130L217.3 129.9C217.6 128.2 217.1 127.6 215.7 128.3L211 130.3L214.7 133.8C215.9 134.9 216.5 134.7 216.8 132.8L217.5 132.9L216.4 138.8L215.7 138.7C216.1 136.6 215.6 136 214.2 134.7Z" fill="white"/>
</svg>
