<svg width="314" height="90" viewBox="0 0 314 90" fill="none" xmlns="http://www.w3.org/2000/svg">
<g clip-path="url(#clip0_5975_151113)">
<path d="M131.495 65.7723H125.11V66.2642C125.603 66.2866 126.888 66.6668 127.296 66.9352C127.767 67.2482 128.025 68.344 128.025 69.9544V77.5353L119.068 65.7723H114.654V66.2642C115.233 66.2866 116.432 66.8233 116.947 67.2482C117.375 67.606 117.632 68.3664 117.632 69.0149V76.8865C117.632 78.6314 117.44 79.5705 116.925 79.9507C116.69 80.1293 115.319 80.5319 114.933 80.5542V81.046H121.36V80.5542C120.975 80.5319 119.518 80.1516 119.154 79.8391C118.682 79.4365 118.425 78.4744 118.425 76.7749V68.59L128.025 81.203H128.817V69.8198C128.817 68.344 128.946 67.2035 129.524 66.8233C129.867 66.5997 131.11 66.2866 131.495 66.2642V65.7723Z" fill="white"/>
<path d="M135.3 74.8967L137.636 68.6571L140.014 74.8967H135.3ZM146.292 80.5542C145.885 80.5319 145.264 80.3756 144.878 80.1516C144.364 79.8391 144.171 79.5035 143.999 79.0563C143.207 76.9765 141.107 71.296 138.921 65.5263H138.108C136.479 69.7974 134.701 74.5388 133.18 78.3851C132.858 79.1679 132.472 79.816 131.958 80.1293C131.572 80.3533 130.865 80.5319 130.458 80.5542V81.0461H136.35V80.5542C135.6 80.5095 133.93 80.1516 133.93 79.3465C133.93 79.034 134.015 78.586 134.165 78.0942C134.358 77.4237 134.615 76.6633 135.022 75.6342H140.293L141.621 79.1679C141.686 79.3465 141.707 79.5258 141.707 79.6821C141.707 80.2409 140.293 80.5095 139.543 80.5542V81.0461H146.292V80.5542Z" fill="white"/>
<path d="M165.413 80.5542C165.028 80.5319 164.063 80.3533 163.806 80.2186C163.313 79.973 163.142 79.6151 163.142 79.1233V67.6508C163.142 67.1588 163.271 66.7339 163.806 66.5549C164.192 66.4208 165.006 66.2866 165.392 66.2642V65.7723H160.55C160.528 66.0182 160.4 66.8457 160.056 67.6731L156.05 77.1551L151.079 65.7723H146.258V66.2642C146.837 66.2866 147.672 66.4655 148.187 66.8904C148.615 67.2482 148.851 67.8073 148.851 68.7242V76.9088C148.851 78.6314 148.658 79.6151 148.144 79.9953C147.63 80.3756 146.515 80.5095 146.151 80.5542V81.046H152.579V80.5542C152.193 80.5319 150.737 80.174 150.372 79.8614C149.9 79.4588 149.643 78.4967 149.643 76.7972V67.9862L153.8 77.6916C154.207 78.6537 154.678 79.9284 154.936 80.8005H155.343L160.893 67.6731V79.1233C160.893 79.6374 160.699 79.9953 160.206 80.2639C159.906 80.4202 158.728 80.5319 158.343 80.5542V81.046H165.413V80.5542Z" fill="white"/>
<path d="M183.09 65.7723H176.683V66.2642C177.176 66.2866 178.333 66.5549 178.869 66.9128C179.341 67.2259 179.598 68.2769 179.598 69.9098V76.5293C179.598 78.0049 178.805 80.4426 175.398 80.4426C172.055 80.4426 171.498 78.1842 171.498 76.574V67.6508C171.498 67.1588 171.627 66.7339 172.163 66.5549C172.548 66.4208 173.32 66.2866 173.705 66.2642V65.7723H167.042V66.2642C167.385 66.2866 168.156 66.4432 168.542 66.6444C169.035 66.9128 169.206 67.2706 169.206 67.7626V77.0212C169.206 79.3465 171.135 81.404 174.884 81.404C177.005 81.404 180.412 80.264 180.412 76.6186V69.7751C180.412 68.3888 180.54 67.1812 181.119 66.8009C181.569 66.5102 182.704 66.2866 183.09 66.2642V65.7723Z" fill="white"/>
<path d="M199.052 77.647H198.453V77.9826C198.453 79.4812 197.917 80.1293 197.36 80.1293C197.039 80.1293 196.524 80.0846 196.267 79.0786C195.989 77.9826 195.86 76.8865 195.539 75.6565C195.11 74.024 193.332 73.4428 192.325 73.3312V73.1072C193.846 72.66 196.289 71.654 196.289 69.2162C196.289 66.7786 193.868 65.7723 191.703 65.7723H184.226V66.2642C184.611 66.2866 185.383 66.4432 185.768 66.5773C186.304 66.7562 186.433 67.2035 186.433 67.6955V79.1902C186.433 79.7044 186.283 80.107 185.768 80.3086C185.49 80.4202 184.611 80.5319 184.226 80.5542V81.046H190.932V80.5542C190.546 80.5319 189.646 80.4202 189.368 80.3086C188.854 80.107 188.704 79.7044 188.704 79.1902V73.5991H190.396C192.882 73.5991 193.246 75.7465 193.461 77.513C193.761 80.04 194.553 81.2923 196.267 81.2923C198.11 81.2923 199.052 80.0623 199.052 77.9826V77.647ZM190.032 72.9509H188.704V66.3984H190.589C192.218 66.3984 193.653 67.114 193.653 69.6634C193.653 72.2128 191.918 72.9509 190.032 72.9509Z" fill="white"/>
<path d="M95.619 78.674C94.9461 79.7658 93.8829 80.6902 92.6458 80.6902C92.0816 80.6902 91.3225 80.4593 91.3225 78.5267C91.3225 76.0277 93.0586 71.8688 95.3148 71.8688C96.3353 71.8688 96.8778 72.3314 97.2465 73.507L95.619 78.674ZM96.7909 65.7363V66.1563C97.3334 66.1773 97.7672 66.1773 98.3097 66.2403C98.8088 66.3033 99.1992 66.4503 99.1992 66.9124C99.1992 67.1854 99.0695 67.6685 98.8739 68.3196L97.4855 72.7723H97.4203C97.0944 71.8898 96.2701 71.4279 95.38 71.4279C91.4739 71.4279 89.2822 75.9223 89.2822 78.0858C89.2822 80.7112 90.8669 81.404 92.3206 81.404C93.5577 81.404 94.6861 80.564 95.5321 79.4086L95.619 79.4302C95.619 80.8158 96.3136 81.3412 97.5934 81.3412C99.1347 81.3412 99.9155 80.0393 100.697 78.1695L100.263 78.044C99.5468 79.8293 98.9174 80.8158 97.8976 80.8158C97.4855 80.8158 97.1813 80.6693 97.1813 79.9758C97.1813 79.724 97.3768 78.9049 97.5282 78.4221L101.717 65.5263L96.7909 65.7363Z" fill="white"/>
<path d="M107.632 71.4279C103.574 71.4279 101.426 75.8805 101.426 78.044C101.426 80.7112 103.205 81.404 104.746 81.404C106.157 81.404 107.632 80.564 108.977 78.0858L108.587 77.8967C107.697 79.493 106.656 80.7112 105.071 80.7112C103.943 80.7112 103.465 80.0177 103.465 78.5895C103.465 78.0021 103.639 77.3086 103.791 76.6158C105.918 76.3005 109.477 75.1033 109.477 72.8351C109.477 71.8898 108.609 71.4279 107.632 71.4279ZM103.9 76.1742C104.486 74.0742 105.766 71.8479 107.025 71.8479C107.719 71.8479 107.979 72.2888 107.979 72.9614C107.979 73.927 106.959 75.6495 103.9 76.1742Z" fill="white"/>
<path d="M114.46 32.7496H104.719V33.4589C105.47 33.4911 107.432 34.039 108.053 34.4259C108.772 34.8772 109.164 36.4568 109.164 38.7777V49.7057L95.4998 32.7496H88.7656V33.4589C89.648 33.4911 91.4788 34.2647 92.2631 34.8772C92.917 35.393 93.3095 36.489 93.3095 37.4238V48.7708C93.3095 51.2852 93.0151 52.6391 92.2308 53.1871C91.8713 53.445 89.7791 54.0253 89.1904 54.0575V54.7667H98.9973V54.0575C98.4092 54.0253 96.186 53.4772 95.6302 53.026C94.9111 52.4457 94.5192 51.0596 94.5192 48.6096V36.8113L109.164 54.9923H110.373V38.5843C110.373 36.4568 110.57 34.8127 111.453 34.2647C111.976 33.9423 113.872 33.4911 114.46 33.4589V32.7496Z" fill="white"/>
<path d="M135.288 35.5864C132.836 33.2332 130.057 32.2339 126.984 32.2339C123.814 32.2339 120.937 33.3621 118.714 35.5864C116.589 37.6817 115.543 40.4863 115.543 44C115.543 47.5137 116.883 50.2537 119.04 52.2523C121.166 54.2187 123.879 55.2825 126.854 55.2825C130.221 55.2825 132.901 54.1542 134.993 52.1878C137.413 49.9313 138.393 46.9656 138.393 43.6131C138.393 40.454 137.217 37.4883 135.288 35.5864ZM126.984 54.2831C121.885 54.2831 119.498 49.5767 119.498 43.8387C119.498 37.166 122.342 33.2332 126.984 33.2332C132.411 33.2332 134.438 38.4554 134.438 43.7098C134.438 49.7057 132.052 54.2831 126.984 54.2831Z" fill="white"/>
<path d="M160.374 32.7496H139.91V38.3587H140.694C141.054 36.9403 142.82 33.9423 144.225 33.749C145.01 33.6523 146.154 33.62 146.873 33.62H148.409V52.0589C148.409 52.768 148.181 53.3805 147.396 53.6706C146.971 53.8319 145.304 54.0253 144.715 54.0575V54.7667H155.569V54.0575C154.98 54.0253 153.28 53.6706 152.888 53.5095C152.136 53.1871 151.874 52.6069 151.874 51.8977V33.62H153.411C154.294 33.62 155.274 33.6523 156.059 33.749C157.465 33.9423 159.23 36.9403 159.59 38.3587H160.374V32.7496Z" fill="white"/>
<path d="M184.716 49.8668H183.8V50.3504C183.8 52.5102 182.983 53.445 182.133 53.445C181.643 53.445 180.858 53.3805 180.466 51.9299C180.041 50.3504 179.845 48.7708 179.355 46.9979C178.701 44.6447 175.988 43.8065 174.451 43.6453V43.323C176.772 42.6783 180.499 41.2277 180.499 37.714C180.499 34.2003 176.805 32.7496 173.503 32.7496H162.094V33.4589C162.683 33.4911 163.859 33.7167 164.447 33.9101C165.265 34.168 165.461 34.8127 165.461 35.5219V52.0911C165.461 52.8325 165.232 53.4128 164.447 53.7029C164.023 53.8641 162.683 54.0253 162.094 54.0575V54.7667H172.326V54.0575C171.737 54.0253 170.364 53.8641 169.94 53.7029C169.155 53.4128 168.926 52.8325 168.926 52.0911V44.0322H171.509C175.301 44.0322 175.856 47.1268 176.184 49.6734C176.641 53.3161 177.851 55.1213 180.466 55.1213C183.278 55.1213 184.716 53.3483 184.716 50.3504V49.8668ZM170.953 43.0973H168.926V33.6523H171.803C174.287 33.6523 176.477 34.6838 176.477 38.3587C176.477 42.0336 173.83 43.0973 170.953 43.0973Z" fill="white"/>
<path d="M204.927 48.5774C204.601 49.5445 203.261 52.0911 202.279 53.0904C201.495 53.8963 199.207 53.8319 196.918 53.8319C193.616 53.8319 193.028 53.5417 193.028 50.8983V43.8065H195.873C197.637 43.8065 198.193 44.3545 198.618 44.8058C199.01 45.2249 199.566 46.9979 199.631 47.9327H200.515V38.9389H199.631C199.533 39.7771 199.109 41.4211 198.618 41.9046C198.226 42.2914 197.703 42.9039 195.873 42.9039H193.028V33.62H196.886C197.932 33.62 198.814 33.6523 199.599 33.749C201.004 33.9423 202.737 36.3278 203.097 37.7462H203.98V32.7496H185.967V33.4589C186.556 33.4911 187.929 33.7812 188.55 34.039C189.367 34.3614 189.563 34.9095 189.563 35.6186V52.0911C189.563 52.8325 189.334 53.3805 188.55 53.6706C188.059 53.8641 186.556 54.0253 185.967 54.0575V54.7667H205.32L205.745 48.5774H204.927Z" fill="white"/>
<path d="M226.286 32.7496H215.759V33.4589C216.348 33.4911 217.263 33.6523 218.048 33.9746C218.833 34.297 219.061 34.9095 219.061 35.6186V52.1556C219.061 52.8647 218.833 53.445 218.048 53.7352C217.623 53.8963 216.283 54.0575 215.629 54.0575V54.7667H225.632C231.941 54.7667 238.479 51.4141 238.479 43.9032C238.479 35.0706 230.765 32.7496 226.286 32.7496ZM226.09 53.8319C223.573 53.8319 222.723 52.9292 222.526 51.3497V33.7167C223.246 33.6845 224.619 33.6523 225.371 33.6523C230.863 33.6523 234.458 38.0041 234.458 43.8709C234.458 49.6734 231.843 53.8319 226.09 53.8319Z" fill="white"/>
<path d="M245.664 45.9018L249.227 36.908L252.855 45.9018H245.664ZM262.434 54.0575C261.813 54.0253 260.864 53.7996 260.276 53.4772C259.491 53.026 259.197 52.5424 258.936 51.8977C257.727 48.8998 254.523 40.7119 251.188 32.3951H249.946C247.461 38.5521 244.748 45.3861 242.427 50.9307C241.937 52.0589 241.348 52.9937 240.564 53.445C239.975 53.7674 238.896 54.0253 238.275 54.0575V54.7667H247.265V54.0575C246.121 53.993 243.571 53.4772 243.571 52.3167C243.571 51.8655 243.702 51.2207 243.931 50.5116C244.225 49.5445 244.617 48.4485 245.239 46.9656H253.28L255.307 52.0589C255.405 52.3168 255.438 52.5747 255.438 52.8003C255.438 53.6062 253.28 53.993 252.136 54.0575V54.7667H262.434V54.0575Z" fill="white"/>
<path d="M291.608 54.0575C291.019 54.0253 289.548 53.7674 289.156 53.5739C288.404 53.2194 288.143 52.7036 288.143 51.9944V35.4574C288.143 34.7482 288.339 34.1357 289.156 33.8779C289.744 33.6845 290.986 33.4911 291.575 33.4589V32.7496H284.187C284.155 33.1042 283.958 34.297 283.435 35.4896L277.322 49.1576L269.738 32.7496H262.383V33.4589C263.265 33.4911 264.54 33.749 265.324 34.3614C265.978 34.8772 266.338 35.6831 266.338 37.0048V48.803C266.338 51.2852 266.044 52.7036 265.259 53.2516C264.475 53.7996 262.775 53.993 262.219 54.0575V54.7667H272.026V54.0575C271.438 54.0253 269.215 53.5095 268.659 53.0582C267.94 52.478 267.548 51.0918 267.548 48.6419V35.941L273.889 49.9313C274.51 51.3174 275.23 53.1549 275.622 54.412H276.243L284.71 35.4896V51.9944C284.71 52.7358 284.416 53.2516 283.664 53.6384C283.206 53.8641 281.408 54.0253 280.82 54.0575V54.7667H291.608V54.0575Z" fill="white"/>
<path d="M313.183 48.5774C312.857 49.5445 311.516 52.0911 310.535 53.0904C309.751 53.8963 307.463 53.8319 305.174 53.8319C301.872 53.8319 301.284 53.5417 301.284 50.8983V43.8065H304.128C305.893 43.8065 306.449 44.3545 306.874 44.8058C307.266 45.2249 307.822 46.9979 307.887 47.9327H308.77V38.9389H307.887C307.789 39.7771 307.364 41.4211 306.874 41.9046C306.482 42.2914 305.958 42.9039 304.128 42.9039H301.284V33.62H305.141C306.188 33.62 307.07 33.6523 307.855 33.749C309.26 33.9423 310.993 36.3278 311.352 37.7462H312.235V32.7496H294.223V33.4589C294.811 33.4911 296.184 33.7812 296.805 34.039C297.623 34.3614 297.819 34.9095 297.819 35.6186V52.0911C297.819 52.8325 297.59 53.3805 296.805 53.6706C296.315 53.8641 294.811 54.0253 294.223 54.0575V54.7667H313.576L314 48.5774H313.183Z" fill="white"/>
<path d="M210.524 11.4318C206.344 11.4318 204.23 15.7736 204.23 18.1808C204.23 20.9929 206.029 22.1177 207.558 22.1177C211.783 22.1177 213.852 17.7984 213.852 15.3912C213.852 12.5791 212.053 11.4318 210.524 11.4318ZM207.895 21.6903C207.018 21.6903 206.344 20.678 206.344 18.6082C206.344 15.9537 207.827 11.8143 210.187 11.8143C210.997 11.8143 211.738 12.8266 211.738 14.8963C211.738 17.5734 210.412 21.6903 207.895 21.6903Z" fill="white"/>
<path d="M224.203 5.08776C223.146 5.08776 222.067 5.35772 221.01 6.32507C219.617 7.58491 218.875 9.06963 218.38 10.8919L218.133 11.7917H215.75L215.526 12.5341H217.908C217.301 14.8963 216.537 18.2708 215.435 21.8927C214.424 25.1997 213.435 26.6845 211.772 26.6845C211.614 26.6845 211.367 26.5945 211.322 26.2796C211.592 25.8971 211.794 25.6947 211.794 25.2223C211.794 24.4123 211.052 24.1424 210.58 24.1424C209.816 24.1424 209.411 24.8173 209.411 25.3123C209.411 26.2121 209.906 27.112 211.681 27.112C212.783 27.112 213.66 26.797 214.828 25.8071C216.2 24.6823 217.009 22.9951 217.548 21.2628C218.313 18.8107 219.167 15.3013 219.887 12.5341H222.674L222.921 11.7917H220.089L220.539 10.217C221.438 7.04498 222.494 5.53769 223.933 5.53769C224.18 5.53769 224.315 5.58268 224.427 5.92013C224.36 6.39256 224.09 6.82 224.09 7.13498C224.09 7.87737 224.899 8.12477 225.349 8.12477C226.113 8.12477 226.495 7.38244 226.495 6.99998C226.495 6.07761 225.754 5.08776 224.203 5.08776Z" fill="white"/>
<path d="M93.6361 15.7227L95.9848 9.69314L98.377 15.7227H93.6361ZM104.691 21.1904C104.282 21.1688 103.657 21.0175 103.269 20.8014C102.752 20.4989 102.558 20.1747 102.385 19.7424C101.588 17.7326 99.476 12.2433 97.278 6.66756H96.4593C94.8213 10.7953 93.0327 15.377 91.5026 19.0941C91.1788 19.8505 90.7912 20.4772 90.2739 20.7798C89.8864 20.996 89.1749 21.1688 88.7656 21.1904V21.6659H94.6917V21.1904C93.9375 21.1472 92.2568 20.8014 92.2568 20.0234C92.2568 19.7209 92.343 19.2886 92.4937 18.8131C92.6878 18.1649 92.9465 17.4301 93.3558 16.4359H98.6573L99.9932 19.8505C100.058 20.0234 100.079 20.1963 100.079 20.3476C100.079 20.8879 98.6573 21.1472 97.9032 21.1904V21.6659H104.691V21.1904Z" fill="white"/>
<path d="M117.31 17.6245C116.469 19.5047 115.241 20.8663 112.612 20.8663C109.789 20.8663 107.44 18.208 107.44 14.2964C107.44 9.39056 109.573 7.25107 111.771 7.25107C114.551 7.25107 116.017 9.52026 116.793 12.0272H117.31L117.224 6.68916H116.34L115.694 7.79135C115.047 7.18626 113.624 6.62433 112.439 6.62433C108.108 6.62433 104.854 10.0173 104.854 14.4693C104.854 19.0509 107.741 21.9901 111.986 21.9901C115.262 21.9901 116.987 19.937 117.87 17.9271L117.31 17.6245Z" fill="white"/>
<path d="M122.489 15.7227L124.838 9.69314L127.23 15.7227H122.489ZM133.545 21.1904C133.135 21.1688 132.51 21.0175 132.122 20.8014C131.604 20.4989 131.411 20.1747 131.239 19.7424C130.441 17.7326 128.329 12.2433 126.131 6.66756H125.312C123.674 10.7953 121.885 15.377 120.355 19.0941C120.032 19.8505 119.644 20.4772 119.127 20.7798C118.739 20.996 118.028 21.1688 117.618 21.1904V21.6659H123.545V21.1904C122.791 21.1472 121.109 20.8014 121.109 20.0234C121.109 19.7209 121.196 19.2886 121.347 18.8131C121.54 18.1649 121.799 17.4301 122.209 16.4359H127.51L128.846 19.8505C128.911 20.0234 128.933 20.1963 128.933 20.3476C128.933 20.8879 127.51 21.1472 126.756 21.1904V21.6659H133.545V21.1904Z" fill="white"/>
<path d="M140.967 6.90528H134.028V7.3807C134.416 7.40233 135.019 7.5104 135.537 7.72654C136.054 7.9426 136.205 8.35326 136.205 8.82872V19.9153C136.205 20.3908 136.054 20.7798 135.537 20.9743C135.256 21.0824 134.372 21.1904 133.941 21.1904V21.6659H140.536C144.695 21.6659 149.006 19.4183 149.006 14.3828C149.006 8.46133 143.919 6.90528 140.967 6.90528ZM140.838 21.0391C139.178 21.0391 138.618 20.434 138.489 19.375V7.55365C138.963 7.53202 139.868 7.5104 140.364 7.5104C143.985 7.5104 146.355 10.4279 146.355 14.3612C146.355 18.2513 144.631 21.0391 140.838 21.0391Z" fill="white"/>
<path d="M163.128 17.5165C162.912 18.1649 162.028 19.8721 161.382 20.5421C160.864 21.0824 159.356 21.0391 157.847 21.0391C155.671 21.0391 155.283 20.8446 155.283 19.0725V14.318H157.158C158.322 14.318 158.688 14.6854 158.968 14.9879C159.226 15.2689 159.593 16.4575 159.636 17.0842H160.218V11.0547H159.636C159.571 11.6166 159.291 12.7187 158.968 13.043C158.709 13.3023 158.364 13.7129 157.158 13.7129H155.283V7.48877H157.826C158.516 7.48877 159.098 7.51039 159.615 7.57521C160.541 7.70491 161.683 9.30412 161.921 10.255H162.502V6.90528H150.628V7.3807C151.016 7.40233 151.921 7.59684 152.33 7.76972C152.869 7.98586 152.998 8.35326 152.998 8.82872V19.8721C152.998 20.3692 152.848 20.7366 152.33 20.9311C152.007 21.0608 151.016 21.1688 150.628 21.1904V21.6659H163.386L163.666 17.5165H163.128Z" fill="white"/>
<path d="M183.924 21.1904C183.536 21.1688 182.566 20.996 182.308 20.8663C181.812 20.6286 181.64 20.2827 181.64 19.8073V8.72065C181.64 8.24519 181.769 7.83453 182.308 7.66165C182.696 7.53202 183.515 7.40233 183.903 7.3807V6.90528H179.032C179.011 7.143 178.881 7.9426 178.536 8.74228L174.507 17.9055L169.507 6.90528H164.658V7.3807C165.239 7.40233 166.08 7.57521 166.597 7.98586C167.028 8.33163 167.266 8.87191 167.266 9.75795V17.6678C167.266 19.3319 167.072 20.2827 166.554 20.6501C166.037 21.0175 164.916 21.1472 164.55 21.1904V21.6659H171.016V21.1904C170.627 21.1688 169.162 20.823 168.796 20.5205C168.321 20.1315 168.063 19.2022 168.063 17.5597V9.04479L172.244 18.4242C172.653 19.3535 173.127 20.5853 173.386 21.4282H173.795L179.377 8.74228V19.8073C179.377 20.3043 179.183 20.6501 178.688 20.9095C178.385 21.0608 177.2 21.1688 176.813 21.1904V21.6659H183.924V21.1904Z" fill="white"/>
<path d="M199.053 6.90528H193.45V7.3807C194.441 7.44558 195.777 7.70491 195.777 8.41807C195.777 8.76384 194.247 11.3356 192.243 14.4909C190.325 11.0763 188.902 8.4397 188.902 8.13712C188.902 7.61847 190.325 7.42395 191.079 7.3807V6.90528H184.14V7.3807C184.549 7.40233 185.131 7.53202 185.519 7.74809C186.036 8.05067 186.467 8.56933 186.834 9.21767C187.76 10.7953 188.687 12.5242 189.678 14.4693C190.002 15.1176 190.239 15.6579 190.239 16.0901V19.8505C190.239 20.326 190.088 20.7366 189.571 20.9311C189.291 21.0391 188.192 21.1688 187.803 21.1904V21.6659H194.958V21.1904C194.57 21.1688 193.45 20.9311 193.191 20.823C192.695 20.6069 192.523 20.2395 192.523 19.7424V16.8682C192.523 16.155 192.803 15.1393 193.169 14.4477C194.42 12.1785 195.411 10.3847 196.596 8.91516C197.049 8.35326 197.243 8.13712 197.803 7.81298C198.04 7.66165 198.795 7.40233 199.053 7.3807V6.90528Z" fill="white"/>
<path d="M2.00616 35.4906C2.00616 35.1887 1.72959 34.9614 1.43349 35.0252C1.40429 35.0316 1.37617 35.0376 1.34913 35.0436C1.25641 35.0639 1.16163 35.0785 1.06703 35.0931C0.817038 35.1316 0.568314 35.17 0.362341 35.3135C0.143197 35.4661 0 35.7185 0 36.004V80.1844C0 80.7781 0.603006 81.187 1.16897 80.9916C5.01717 79.6626 9.33028 78.9181 13.8855 78.9181C24.801 78.9181 34.3266 83.1928 39.3953 89.5388C39.7628 89.9986 40.4835 89.9986 40.851 89.5388C45.9196 83.1928 55.4453 78.9181 66.3608 78.9181C70.9163 78.9181 75.2289 79.6626 79.0775 80.9916C79.6431 81.187 80.2466 80.7781 80.2466 80.1844V36.004C80.2466 35.7185 80.1029 35.4661 79.8843 35.3135C79.6782 35.17 79.4294 35.1316 79.1792 35.0931C79.0845 35.0785 78.9899 35.0639 78.8974 35.0436C78.8701 35.0376 78.842 35.0316 78.8126 35.0252C78.5168 34.9614 78.24 35.1887 78.24 35.4906V77.5437C78.24 78.0795 77.7276 78.466 77.2139 78.316L76.7008 78.1667C64.6391 74.6553 50.6286 77.3951 40.9229 85.9577C40.7102 86.1474 40.4301 86.2626 40.1232 86.2626C39.8162 86.2626 39.5361 86.1474 39.3235 85.9577C29.6177 77.3951 15.6072 74.6553 3.54546 78.1667L3.03236 78.316C2.51899 78.466 2.00616 78.0795 2.00616 77.5437V35.4906Z" fill="white"/>
<path d="M75.8334 34.9328C75.8334 34.6931 75.6588 34.4904 75.4205 34.4596C69.6075 33.7091 57.7123 33.1166 41.6916 37.1667C41.4787 37.2205 41.3271 37.4124 41.3271 37.6314V81.5274C41.3271 81.9272 41.7857 82.1554 42.1087 81.9209C51.6271 75.0042 64.0577 72.7151 75.2355 75.2916C75.5397 75.3621 75.8334 75.1319 75.8334 74.8179V34.9328Z" fill="#99A5C0"/>
<path d="M38.919 37.6314C38.919 37.4124 38.7675 37.2205 38.5545 37.1667C22.5338 33.1166 10.6386 33.7091 4.82574 34.4596C4.58717 34.4904 4.41309 34.6931 4.41309 34.9328V74.8179C4.41309 75.1319 4.70617 75.3621 5.01079 75.2916C16.1885 72.7151 28.619 75.0042 38.1374 81.9209C38.4604 82.1554 38.919 81.9272 38.919 81.5274V37.6314Z" fill="#99A5C0"/>
<path d="M11.0742 1.01755C11.0742 0.455573 11.5332 0 12.0995 0H68.1467C68.7129 0 69.1719 0.455574 69.1719 1.01755V39.0061C69.1719 57.6613 40.1231 67.8368 40.1231 67.8368C40.1231 67.8368 11.0742 57.6613 11.0742 39.0061V1.01755Z" fill="#001E62"/>
<path d="M12.7783 2.66259C12.7783 2.12871 13.2104 1.69592 13.7435 1.69592H66.5034C67.0365 1.69592 67.4686 2.12872 67.4686 2.66259V38.7518C67.4686 56.4742 40.1234 66.1409 40.1234 66.1409C40.1234 66.1409 12.7783 56.4742 12.7783 38.7518V2.66259Z" fill="white"/>
<mask id="mask0_5975_151113" style="mask-type:alpha" maskUnits="userSpaceOnUse" x="12" y="1" width="56" height="66">
<path d="M12.7783 2.66259C12.7783 2.12871 13.2104 1.69592 13.7435 1.69592H66.5034C67.0365 1.69592 67.4686 2.12872 67.4686 2.66259V38.7518C67.4686 56.4742 40.1234 66.1409 40.1234 66.1409C40.1234 66.1409 12.7783 56.4742 12.7783 38.7518V2.66259Z" fill="white"/>
</mask>
<g mask="url(#mask0_5975_151113)">
<path d="M73.5531 6.05625L61.5059 -5.93572L7.293 48.0282L19.3403 60.0202L73.5531 6.05625Z" fill="#FFDF4D"/>
</g>
<path d="M54.946 42.1527C54.9867 42.1884 55.0959 42.1234 55.0754 42.0749C54.159 39.9133 55.0738 38.4202 56.4794 36.4623C57.8851 38.4202 58.7999 39.9132 57.8835 42.0749C57.863 42.1234 57.9722 42.1885 58.0128 42.1528C58.2823 41.9163 58.604 41.7444 58.9903 41.6667C60.9869 41.2651 63.1246 42.8366 62.0859 44.8039C61.5656 45.7894 60.015 46.3672 59.3337 45.1021C60.4815 45.3994 60.4071 43.7699 59.0965 43.9213C57.9987 44.0481 57.3358 44.8735 57.0013 45.7769C56.9811 45.8317 57.0251 45.888 57.087 45.888H57.7639C58.5972 45.888 58.5972 46.8877 57.7561 46.8877H57.0303C56.9721 46.8877 56.9283 46.9381 56.9468 46.9898C57.074 47.344 57.4132 47.4895 57.9519 47.4719C58.6879 47.4478 59.1524 46.7504 58.7109 46.1736C59.9317 46.5335 59.6181 48.391 58.0299 48.4576C57.8152 48.4666 57.5891 48.4205 57.3796 48.3129C57.3414 48.2933 57.2908 48.3282 57.299 48.3682C57.423 48.9692 56.952 49.5015 56.4794 50.0297C56.007 49.5015 55.5359 48.9691 55.6599 48.3682C55.6681 48.3282 55.6176 48.2933 55.5794 48.3129C55.3698 48.4205 55.1437 48.4666 54.9291 48.4576C53.3408 48.391 53.0273 46.5335 54.2481 46.1736C53.8066 46.7504 54.271 47.4478 55.007 47.4719C55.5457 47.4895 55.885 47.344 56.0121 46.9898C56.0306 46.9381 55.9868 46.8877 55.9287 46.8877H55.2028C54.3617 46.8877 54.3617 45.888 55.1951 45.888H55.8719C55.9338 45.888 55.9779 45.8317 55.9577 45.7769C55.6231 44.8735 54.9603 44.0481 53.8624 43.9213C52.5518 43.7699 52.4775 45.3994 53.6252 45.1021C52.944 46.3672 51.3933 45.7894 50.8731 44.8039C49.8344 42.8366 51.972 41.2651 53.9687 41.6667C54.3549 41.7444 54.6766 41.9163 54.946 42.1527Z" fill="#62B3E1"/>
<path d="M28.1574 6.59524C28.09 6.59524 28.0279 6.56021 27.9947 6.50353L27.1649 5.08776L26.3353 6.50353C26.3021 6.56021 26.2399 6.59524 26.1725 6.59524H24.5146L25.3458 8.01356C25.3783 8.06889 25.3783 8.13656 25.3458 8.19189L24.5146 9.61019H26.1725C26.2399 9.61019 26.3021 9.64521 26.3353 9.70193L27.1649 11.1177L27.9947 9.70193C28.0279 9.64521 28.09 9.61019 28.1574 9.61019H29.8152L28.984 8.19189C28.9517 8.13656 28.9517 8.06889 28.984 8.01356L29.8152 6.59524H28.1574Z" fill="#62B3E1"/>
<path d="M19.8282 8.10272C19.7609 8.10272 19.6987 8.0677 19.6655 8.01098L18.8358 6.59523L18.0061 8.01098C17.9729 8.0677 17.9107 8.10272 17.8434 8.10272H16.1855L17.0167 9.52103C17.0491 9.57635 17.0491 9.64403 17.0167 9.69935L16.1855 11.1177H17.8434C17.9107 11.1177 17.9729 11.1527 18.0061 11.2094L18.8358 12.6252L19.6655 11.2094C19.6987 11.1527 19.7609 11.1177 19.8282 11.1177H21.486L20.6549 9.69935C20.6225 9.64403 20.6225 9.57635 20.6549 9.52103L21.486 8.10272H19.8282Z" fill="#62B3E1"/>
<path d="M25.129 14.1327C25.0617 14.1327 24.9995 14.0976 24.9663 14.0409L24.1365 12.6252L23.3069 14.0409C23.2737 14.0976 23.2115 14.1327 23.1441 14.1327H21.4863L22.3174 15.551C22.3499 15.6063 22.3499 15.674 22.3174 15.7294L21.4863 17.1477H23.1441C23.2115 17.1477 23.2737 17.1827 23.3069 17.2393L24.1365 18.6551L24.9663 17.2393C24.9995 17.1827 25.0617 17.1477 25.129 17.1477H26.7868L25.9557 15.7294C25.9233 15.674 25.9233 15.6063 25.9557 15.551L26.7868 14.1327H25.129Z" fill="#62B3E1"/>
<path d="M42.4373 23.6915C42.1971 23.6785 42.0042 23.4944 41.9817 23.2533C41.4351 17.4178 40.1229 5.08776 40.1229 5.08776C40.1229 5.08776 38.8107 17.4178 38.2641 23.2533C38.2416 23.4944 38.0487 23.6785 37.8086 23.6915C29.8564 24.1216 19.5928 25.7663 19.5928 25.7663C19.5928 25.7663 29.7999 27.4019 37.4995 27.8365C37.7606 27.8513 37.962 28.0714 37.9578 28.3348C37.7956 38.7265 38.7542 49.046 40.1229 59.3572C41.4915 49.046 42.4502 38.7265 42.2879 28.3348C42.2838 28.0714 42.4851 27.8513 42.7463 27.8365C50.4458 27.4019 60.653 25.7663 60.653 25.7663C60.653 25.7663 50.3894 24.1216 42.4373 23.6915Z" fill="#001E62"/>
</g>
<defs>
<clipPath id="clip0_5975_151113">
<rect width="314" height="90" fill="white"/>
</clipPath>
</defs>
</svg>
