<svg xmlns="http://www.w3.org/2000/svg" viewBox="0 0 137.7 105.3"><title>wp-logo_white</title><path d="M38.6,59.9a18,18,0,0,0-9.2-2.3c-11.1,0-16.9,7.6-16.9,15,0,9.5,7.8,14.5,16.6,14.5a19.4,19.4,0,0,0,8.6-1.8,39.9,39.9,0,0,0,2.3-7.5l-.6-.3c-1.9,4.5-4.1,8.6-9.6,8.6s-12.4-5.8-12.4-14,4.3-13.5,12-13.5c5,0,7.8,3.4,8.6,8.1h.6V59.9Z" style="fill:#fff"/><path d="M46.5,71.4a7.4,7.4,0,0,1,4.3-1.4c5.1,0,5,4.2,5,7.1v4.8c0,3.3-.2,3.8-3.3,4.2v.6h9.8v-.6c-3.1-.5-3.3-.8-3.3-4.2V74.4c0-2.5-.3-6.6-5.3-6.6-2.7,0-5,1.5-7.2,2.8V56.8l-.5-.2-4.8,1.8v.4c2.1,1.5,2.1,2.1,2.1,3.8V81.9c0,3.3-.2,3.8-3.3,4.2v.6h9.8v-.6c-3.1-.5-3.3-.8-3.3-4.2V71.4Z" style="fill:#fff"/><path d="M72.4,77.2v6.3a4.5,4.5,0,0,1-3,1.6c-1.9,0-2.9-1.6-2.9-3.3a5.7,5.7,0,0,1,.3-1.7l5.7-2.9Zm-9.3,3.4a7,7,0,0,0-.3,1.8c0,2.5,1.5,4.8,4.2,4.8a7.5,7.5,0,0,0,5.3-2.9c.2,1.6.9,2.6,2.6,2.6a16.5,16.5,0,0,0,4.2-.9v-.6c-3.9-.8-3.7-1.7-3.7-5.4v-6c0-3.4-1.2-6.3-5-6.3s-8,4.4-8,5.5.6.4,1,.4h2.1c0-2.3-.3-3.7,2.6-3.7s4.5,1.9,4.2,6.5l-9.3,4.2Z" style="fill:#fff;fill-rule:evenodd"/><path d="M84.7,77.6c0-.6-.3-6.3,3.3-6.7.9-.1,2,.8,2.7,1.4s2.2-1.5,2.2-2.6a2,2,0,0,0-2.1-1.9c-2.6,0-5,2.9-5.9,5.1h-.1l.2-5-.5-.2-5,1.8V70c2.1,1.5,2.1,2.1,2.1,3.8v8c0,3.3-.2,3.8-3.1,4.2v.6H88.9v-.6c-4-.5-4.2-.8-4.2-4.2V77.6Z" style="fill:#fff"/><path d="M99.5,70.4h6.6V68.6H99.5V64.2h-.4l-5.9,5.8.2.3h2.8V81.8c0,3.2-.2,5.4,3.9,5.4a18.7,18.7,0,0,0,6.6-1.3l-.2-.7a9.8,9.8,0,0,1-2.5.3c-4.6,0-4.6-2.4-4.6-6.1v-9Z" style="fill:#fff"/><path d="M110.2,73.1c.5-2.1,1.9-4.5,4.3-4.5s3.4,2.2,3.8,4.1l-8.1.3Zm-.1.8h12.2a6.1,6.1,0,0,0-6.5-6.2c-5.7,0-9.4,4.7-9.4,10.1s3.6,9.3,8.8,9.3a9.3,9.3,0,0,0,7.7-4.9l-.6-.5a5.8,5.8,0,0,1-5,2.6c-4.7,0-7.7-4.1-7.4-8.4l.2-2.1Z" style="fill:#fff;fill-rule:evenodd"/><path d="M129.3,77.6c0-.6-.3-6.3,3.3-6.7.9-.1,2,.8,2.7,1.4s2.2-1.5,2.2-2.6a2,2,0,0,0-2.1-1.9c-2.6,0-5,2.9-5.9,5.1h-.1l.2-5-.5-.2-5,1.8V70c2.1,1.5,2.1,2.1,2.1,3.8v8c0,3.3-.2,3.8-3.1,4.2v.6h10.5v-.6c-4-.5-4.2-.8-4.2-4.2V77.6Z" style="fill:#fff"/><path d="M53,29.8c4.9.3,4.9,2.1,4.9,7.8v13c-.1,4.3-.2,5.6-5.2,6.3v.6H67.2v-.6c-5.5-.8-5.6-1.6-5.6-6.3V29.9c4.9,0,9.5,2.4,9.5,7.9s-2.8,6.2-6.6,6.8v.6c4.9-.5,10.8-2.6,10.8-8.5,0-1.6-.9-8.2-13.2-7.8l-9.2.3v.6Z" style="fill:#fff"/><path d="M80.1,43.9c.5-2.1,1.9-4.5,4.3-4.5s3.4,2.2,3.8,4.1l-8.1.3Zm-.1.8H92.2a6.1,6.1,0,0,0-6.5-6.2c-5.7,0-9.4,4.7-9.4,10.1s3.6,9.3,8.8,9.3a9.3,9.3,0,0,0,7.7-4.9l-.6-.5a5.8,5.8,0,0,1-5,2.6c-4.7,0-7.7-4.1-7.4-8.4l.2-2.1Z" style="fill:#fff;fill-rule:evenodd"/><path d="M96.2,52.6c0,3.3-.2,3.8-3.3,4.2v.6h9.8v-.6c-3.1-.5-3.3-.8-3.3-4.2V42.5a5.8,5.8,0,0,1,4.3-1.8c5.1,0,5,4.2,5,7.1v4.8c0,3.3-.2,3.8-3.3,4.2v.6h9.8v-.6c-3.1-.5-3.3-.8-3.3-4.2V45.2c0-2.5-.3-6.6-5.3-6.6-2.7,0-5,1.5-7.4,3.2l.3-3.1-.5-.2-5,1.8v.4c2.1,1.5,2.1,2.1,2.1,3.8v8Z" style="fill:#fff"/><path d="M117.8,52.6c0,3.3-.2,3.8-3.3,4.2v.6h9.8v-.6c-3.1-.5-3.3-.8-3.3-4.2V42.5a5.8,5.8,0,0,1,4.3-1.8c5.1,0,5,4.2,5,7.1v4.8c0,3.3-.2,3.8-3.3,4.2v.6h9.8v-.6c-3.1-.5-3.3-.8-3.3-4.2V45.2c0-2.5-.3-6.6-5.3-6.6-2.7,0-5,1.5-7.4,3.2l.3-3.1-.5-.2-5,1.8v.4c2.1,1.5,2.1,2.1,2.1,3.8v8Z" style="fill:#fff"/><path d="M90.9,93.3a5.6,5.6,0,0,0-2.6-.7c-1.9,0-4,1.3-4,3.4s5.5,3.3,5.5,6.5a2.2,2.2,0,0,1-2.4,2.2c-2,0-3.2-1.7-3.6-3.4h-.3l.5,3.1a6,6,0,0,0,3.2.9c2.1,0,4.4-1.2,4.4-3.5s-5.7-3.5-5.7-6.6a2,2,0,0,1,2.1-2c1.8,0,2.2,1.4,2.5,2.9h.3V93.3Z" style="fill:#fff"/><path d="M98.8,103.5a3,3,0,0,1-1.9.7,3.5,3.5,0,0,1-3.4-3.8c0-1.2.7-2.9,2.1-2.9s1.5,1.2,2.2,1.2a.9.9,0,0,0,.8-.8c0-.8-1.4-.9-2-.9a4.5,4.5,0,0,0-4.6,4.4,3.8,3.8,0,0,0,3.7,3.9,4.2,4.2,0,0,0,3.2-1.5l-.2-.3Z" style="fill:#fff"/><path d="M101.7,98.5a3.2,3.2,0,0,1,1.8-.6c2.2,0,2.1,1.8,2.1,3V103c0,1.4-.1,1.6-1.4,1.8v.3h4.2v-.3c-1.3-.2-1.4-.3-1.4-1.8V99.8c0-1.1-.1-2.8-2.3-2.8a6.3,6.3,0,0,0-3.1,1.2V92.3h-.2l-2.1.8v.2c.9.6.9.9.9,1.6V103c0,1.4-.1,1.6-1.4,1.8v.3h4.2v-.3c-1.3-.2-1.4-.3-1.4-1.8V98.5Z" style="fill:#fff"/><path d="M117.4,101.1A4.1,4.1,0,0,0,113,97a4.2,4.2,0,0,0-4.4,4.2,4.1,4.1,0,0,0,4.4,4.1,4.3,4.3,0,0,0,4.4-4.2Zm-1.7.2c0,1.5-.8,3.6-2.6,3.6s-2.9-2.2-2.9-3.8.8-3.7,2.7-3.7,2.8,2.2,2.8,3.9Z" style="fill:#fff;fill-rule:evenodd"/><path d="M126.7,101.1a4.1,4.1,0,0,0-4.4-4.1,4.2,4.2,0,0,0-4.4,4.2,4.1,4.1,0,0,0,4.4,4.1,4.3,4.3,0,0,0,4.4-4.2Zm-1.7.2c0,1.5-.8,3.6-2.6,3.6s-2.9-2.2-2.9-3.8.8-3.7,2.7-3.7,2.8,2.2,2.8,3.9Z" style="fill:#fff;fill-rule:evenodd"/><path d="M130.9,105.1v-.3c-1.3-.2-1.4-.3-1.4-1.8V92.3h-.2l-2.1.8v.2c.9.6.9.9.9,1.6V103c0,1.4-.1,1.6-1.4,1.8v.3Z" style="fill:#fff"/><path d="M8.7,41l3.2,10h.2l2.6-7.3L16,40.3a2.2,2.2,0,0,1,2-1.6v-.3H13.3v.3c1,.2,1.8.3,1.8,1.2a20.3,20.3,0,0,1-1.1,4l-1.4,4-2.3-7.1c-.3-1-.6-1.9,1.4-2.2v-.3H6.5v.3c1.1.2,1.7.5,2,1.6L5.7,47.7,3.8,41.4c-.4-1.5-.9-2.4,1.3-2.7v-.3H0v.3c1.5.4,1.5,1,2,2.3L4.9,51h.2L8.7,41Z" style="fill:#fff"/><path d="M21.2,50.6v-.3c-1.3-.2-1.4-.3-1.4-1.8v-6h-.2l-2.3.8v.2c1.1.6,1.1.9,1.1,1.6v3.4c0,1.4-.1,1.6-1.4,1.8v.3ZM19,38.2a.9.9,0,1,0,.9.9.9.9,0,0,0-.9-.9Z" style="fill:#fff;fill-rule:evenodd"/><path d="M25.1,50.6v-.3c-1.3-.2-1.4-.3-1.4-1.8V37.8h-.2l-2.1.8v.2c.9.6.9.9.9,1.6v8.2c0,1.4-.1,1.6-1.4,1.8v.3Z" style="fill:#fff"/><path d="M29,50.6v-.3c-1.3-.2-1.4-.3-1.4-1.8V37.8h-.2l-2.1.8v.2c.9.6.9.9.9,1.6v8.2c0,1.4-.1,1.6-1.4,1.8v.3Z" style="fill:#fff"/><path d="M32.9,50.6v-.3c-1.3-.2-1.4-.3-1.4-1.8v-6h-.2l-2.3.8v.2c1.1.6,1.1.9,1.1,1.6v3.4c0,1.4-.1,1.6-1.4,1.8v.3ZM30.7,38.2a.9.9,0,1,0,.9.9.9.9,0,0,0-.9-.9Z" style="fill:#fff;fill-rule:evenodd"/><path d="M37.3,46.5v2.7a1.9,1.9,0,0,1-1.3.7,1.3,1.3,0,0,1-1.3-1.4,2.4,2.4,0,0,1,.1-.7l2.4-1.2Zm-4,1.4a3,3,0,0,0-.1.8A1.9,1.9,0,0,0,35,50.8a3.2,3.2,0,0,0,2.3-1.2c.1.7.4,1.1,1.1,1.1a7.1,7.1,0,0,0,1.8-.4V50c-1.7-.3-1.6-.7-1.6-2.3V45.2c0-1.4-.5-2.7-2.2-2.7S33,44.3,33,44.8s.3.2.4.2h.9c0-1-.1-1.6,1.1-1.6s1.9.8,1.8,2.8l-4,1.8Z" style="fill:#fff;fill-rule:evenodd"/><path d="M42.6,44.3a2.4,2.4,0,0,1,1.8-.9c2.2,0,2,2.2,2,3.2v1.9c0,1.4-.1,1.6-1.3,1.8v.3h4v-.3c-1.2-.2-1.3-.3-1.3-1.8V44.3a2.4,2.4,0,0,1,1.8-.9c2.3,0,2,2.5,2,3.2v1.9c0,1.4-.1,1.6-1.3,1.8v.3h4v-.3c-1.2-.2-1.3-.3-1.3-1.8V46.2c0-1,.3-3.7-2.3-3.7a4.8,4.8,0,0,0-3,1.5,2.3,2.3,0,0,0-2.2-1.5,4.8,4.8,0,0,0-3,1.5V42.5h-.2l-2.1.8v.2c.9.6.9.9.9,1.6v3.4c0,1.4-.1,1.6-1.3,1.8v.3h4v-.3c-1.2-.2-1.3-.3-1.3-1.8V44.3Z" style="fill:#fff;fill-rule:evenodd"/><path d="M93.5,13.9a.2.2,0,0,0-.2-.2H92V5.8c0-.2-.1-.3-.2-.3H89.2c-.1,0-.2.1-.2.2s.1.2.2.2h1.4v7.6H89.3a.2.2,0,0,0-.2.2c0,.2.1.2.2.2h4a.2.2,0,0,0,.2-.2Z" style="fill:#fff"/><path d="M96.9,7.6c.6-4.4,2.9-6.7,4.5-7.1s.4-.5,0-.5c-3.2.5-6.2,5.2-6.2,8.8s2.3,5.5,3.9,5.5a3.9,3.9,0,0,0,3.8-3.9,3.6,3.6,0,0,0-3.7-3.9,2.7,2.7,0,0,0-2.3,1.1Zm-.1,1.5A2.4,2.4,0,0,1,99.3,7c1.4,0,2.1,1.3,2.1,3.4s-.2,3.4-2.3,3.4-2.3-1.9-2.3-3.9c0-.3,0-.5,0-.8Z" style="fill:#fff;fill-rule:evenodd"/><path d="M111.6,10.4a3.6,3.6,0,0,0-2.8-3.7,3.2,3.2,0,0,0,2.4-3.2,3.3,3.3,0,1,0-6.6,0,3.2,3.2,0,0,0,2.4,3.2,3.7,3.7,0,0,0-2.8,3.7,3.7,3.7,0,1,0,7.3,0Zm-1.7-6.9c0,2.2-.5,2.9-1.9,2.9S106,5.7,106,3.5s.5-2.9,1.9-2.9,1.9.7,1.9,2.9Zm.2,6.9c0,2.5-.6,3.4-2.1,3.4s-2.1-.9-2.1-3.4.6-3.4,2.1-3.4,2.1.9,2.1,3.4Z" style="fill:#fff;fill-rule:evenodd"/><path d="M120.6,10.9c0-4.4-2.3-5.5-3.9-5.5a3.9,3.9,0,0,0-3.8,3.9,3.6,3.6,0,0,0,3.7,3.9,2.7,2.7,0,0,0,2.3-1.1c-.6,4.4-2.9,6.8-4.5,7.1s-.4.5,0,.5c3.2-.5,6.2-5.2,6.2-8.8Zm-1.5-1c0,.3,0,.5,0,.8a2.4,2.4,0,0,1-2.5,2.1c-1.4,0-2.1-1.3-2.1-3.4s.2-3.4,2.3-3.4S119,7.8,119,9.8Z" style="fill:#fff;fill-rule:evenodd"/><path d="M137.7,23.4c0-3.8-5.6-6.2-12.2-6.2s-12,1.4-17.8,3.2a32.7,32.7,0,0,0-13.8-3c-5.2.1-11.7,2.6-11.7,7.8a3.5,3.5,0,0,0,0,.6,49.6,49.6,0,0,1-7.7-.3c-8-1-13-4.9-12.8-10.7s6.8-9,12.9-9,10.4,2.1,10.4,6-4.7,5.5-8.5,5.5-5.9-.9-6.6-3.4c-.2-.5-.1-.6-.2-.6s-.1.5,0,.8c.5,3,4.1,4.3,6.7,4.3,4.1,0,9-2.5,9-6.5s-5.1-7-10.7-7-13,4-13.3,10.1S66.5,25,74.7,26a55.8,55.8,0,0,0,7.7.3c.7,5,6.2,7.7,11.6,7.7s11.9-2.9,11.3-8.1c0-.3-.3-.9-.4-.8s.2.2.2,1c.2,4.9-5.7,6.9-11.2,6.9s-10.4-1.9-11.1-6.6c10.8-.3,19.1-2.5,26.4-4.5,5.9,2.7,11.6,5.7,18.6,6.1,4.9.3,10-1.1,10-4.5Zm-.4,0c0,3-4.7,4.5-9.6,4.1-6.6-.5-12.3-3.3-17.9-5.9,5.9-1.6,11.2-3,16.1-3s11.4,1.1,11.4,4.7ZM82.7,25.3c0-5,6.2-7.4,11.2-7.6a33.2,33.2,0,0,1,13.1,2.8c-7.5,2.2-15.1,5-24.4,5.2v-.5Z" style="fill:#fff;fill-rule:evenodd"/></svg>